<svg width="800" height="800" viewBox="0 0 800 800" xmlns="http://www.w3.org/2000/svg">
<circle cx="399.574" cy="399.574" r="400.426" fill="#CB2715"/>
<circle cx="399.574" cy="399.574" r="365.095" fill="#CB2715" stroke="#F5F5F5" stroke-width="14.1327"/>
<path fill-rule="evenodd" clip-rule="evenodd" d="M324.186 228.804C324.37 228.473 324.558 228.138 324.749 227.799C339.177 202.726 371.488 196.416 386.017 196.416C356.116 228.804 368.351 261.191 371.295 261.191C401.916 247.059 462.569 251.377 489.068 255.303C451.476 264.701 414.665 298.316 400.843 314.07C400.581 313.964 400.573 314.023 400.739 314.189L400.843 314.07C402.136 314.592 409.626 319.133 433.126 334.799C461.391 353.643 468.458 385.834 468.458 399.574C467.476 397.611 459.625 390.741 436.07 378.964C412.516 367.186 381.11 379.945 368.351 387.797C384.054 386.815 417.816 390.152 427.237 411.351C436.659 432.55 364.425 477.107 327.131 496.736H450.792C456.68 492.81 474.935 474.359 500.845 431.961C526.755 389.563 511.641 325.966 500.845 299.467C507.715 305.356 522.633 327.144 527.344 367.186C532.055 407.229 493.975 470.237 474.346 496.736H527.344C523.418 495.755 519.1 484.37 533.232 446.683C547.365 408.996 572.49 448.646 583.286 473.182C604.625 392.093 567.194 348.122 546.094 323.334C538.08 313.921 532.422 307.274 533.232 302.412C535.588 288.279 589.174 314.189 615.673 328.91C619.399 297.237 573.609 278.533 539.477 264.59C519.67 256.5 503.789 250.013 503.789 243.525C503.789 229.393 546.973 212.119 568.564 205.249C530.533 190.037 504.783 196.93 479.416 203.721C465.506 207.445 451.711 211.138 436.07 211.138C400.739 211.138 413.497 164.029 424.293 140.475C380.098 147.453 339.922 200.946 324.749 227.799C324.559 228.131 324.371 228.466 324.186 228.804ZM156.361 340.688C139.873 392.507 176.971 429.017 197.581 440.794C197.581 437.85 198.17 427.25 200.525 408.407C202.881 389.563 213.284 408.407 218.191 420.184C220.547 398.985 234.876 401.537 241.746 405.462C238.801 373.075 303.576 334.799 300.632 376.019C298.277 408.996 254.504 425.091 232.913 429.017L241.746 449.627C234.679 449.627 223.098 453.553 218.191 455.516C239.39 481.426 276.096 485.94 291.799 484.959C283.948 481.033 270.6 468.471 280.022 449.627C289.444 430.784 317.316 435.887 330.075 440.794C327.131 433.924 324.186 413.118 335.964 384.852C347.741 356.587 411.534 359.335 441.959 364.242C426.256 354.428 392.494 331.266 383.073 317.133C373.651 303 406.627 281.801 424.293 272.968C411.534 275.913 381.895 281.801 365.407 281.801C348.919 281.801 346.76 252.358 347.741 237.637C343.815 247.451 331.253 264.724 312.409 255.303C293.566 241.17 326.149 178.751 344.797 149.307C302.399 170.506 280.022 218.989 274.133 240.581C264.711 231.159 270.207 201.324 274.133 187.583L256.467 199.361C235.268 215.849 233.894 261.191 235.857 281.801C228.006 301.43 208.769 344.221 194.637 358.353C178.149 365.42 162.249 349.521 156.361 340.688ZM259.412 299.467C249.99 301.823 245.671 322.04 244.69 331.854L297.688 299.467C288.855 298.486 268.833 297.112 259.412 299.467Z" fill="#F5F5F5"/>
<path d="M324.186 228.804L321.602 227.394L326.76 230.234L324.186 228.804ZM386.017 196.416L388.18 198.414L392.742 193.472H386.017V196.416ZM371.295 261.191V264.136H371.942L372.529 263.865L371.295 261.191ZM489.068 255.303L489.782 258.159L489.499 252.39L489.068 255.303ZM400.739 314.189L398.657 316.271L400.88 318.495L402.953 316.129L400.739 314.189ZM433.126 334.799L434.759 332.349L433.126 334.799ZM468.458 399.574L465.824 400.891L471.402 399.574H468.458ZM368.351 387.797L366.808 385.289L368.535 390.735L368.351 387.797ZM427.237 411.351L424.547 412.547L427.237 411.351ZM327.131 496.736L325.759 494.131L327.131 499.68V496.736ZM450.792 496.736V499.68H451.683L452.425 499.186L450.792 496.736ZM500.845 431.961L503.357 433.497L500.845 431.961ZM500.845 299.467L502.761 297.232L498.118 300.578L500.845 299.467ZM527.344 367.186L524.42 367.53L527.344 367.186ZM474.346 496.736L471.98 494.984L468.501 499.68H474.346V496.736ZM527.344 496.736V499.68L528.058 493.88L527.344 496.736ZM533.232 446.683L535.989 447.717L533.232 446.683ZM583.286 473.182L580.591 474.367L583.987 482.086L586.133 473.931L583.286 473.182ZM546.094 323.334L548.336 321.426L546.094 323.334ZM533.232 302.412L530.328 301.928V301.928L533.232 302.412ZM615.673 328.91L614.243 331.484L618.084 333.618L618.597 329.254L615.673 328.91ZM539.477 264.59L538.364 267.316L539.477 264.59ZM568.564 205.249L569.457 208.055L577.282 205.565L569.658 202.516L568.564 205.249ZM479.416 203.721L478.655 200.877L479.416 203.721ZM424.293 140.475L426.97 141.701L429.257 136.71L423.834 137.566L424.293 140.475ZM197.581 440.794L196.12 443.351L200.525 445.868L200.525 440.794H197.581ZM156.361 340.688L158.811 339.054L155.413 333.957L153.555 339.795L156.361 340.688ZM200.525 408.407L197.604 408.042L200.525 408.407ZM218.191 420.184L215.473 421.316L219.859 431.841L221.118 420.509L218.191 420.184ZM241.746 405.462L240.285 408.019L245.189 410.821L244.678 405.196L241.746 405.462ZM300.632 376.019L303.569 376.229L300.632 376.019ZM232.913 429.017L232.386 426.12L228.751 426.781L230.207 430.177L232.913 429.017ZM241.746 449.627V452.571H246.211L244.452 448.467L241.746 449.627ZM218.191 455.516L217.098 452.782L213.37 454.273L215.913 457.38L218.191 455.516ZM291.799 484.959L291.983 487.897L302.896 487.215L293.116 482.325L291.799 484.959ZM280.022 449.627L282.655 450.944L280.022 449.627ZM330.075 440.794L329.018 443.542L335.529 446.047L332.781 439.634L330.075 440.794ZM335.964 384.852L338.682 385.985L335.964 384.852ZM441.959 364.242L441.49 367.149L443.519 361.745L441.959 364.242ZM383.073 317.133L385.523 315.5L383.073 317.133ZM424.293 272.968L425.61 275.602L423.631 270.1L424.293 272.968ZM347.741 237.637L350.679 237.833L345.007 236.543L347.741 237.637ZM312.409 255.303L310.643 257.658L310.855 257.817L311.092 257.936L312.409 255.303ZM344.797 149.307L347.284 150.883L352.948 141.94L343.48 146.674L344.797 149.307ZM274.133 240.581L272.051 242.663L275.639 246.251L276.974 241.356L274.133 240.581ZM274.133 187.583L276.964 188.392L279.165 180.69L272.5 185.134L274.133 187.583ZM256.467 199.361L254.834 196.911L254.745 196.971L254.66 197.037L256.467 199.361ZM235.857 281.801L238.591 282.895L238.856 282.232L238.788 281.522L235.857 281.801ZM194.637 358.353L195.797 361.06L196.318 360.836L196.719 360.435L194.637 358.353ZM244.69 331.854L241.76 331.562L241.171 337.456L246.225 334.367L244.69 331.854ZM259.412 299.467L260.126 302.323H260.126L259.412 299.467ZM297.688 299.467L299.223 301.979L306.567 297.491L298.013 296.541L297.688 299.467ZM322.186 226.351C321.991 226.696 321.8 227.037 321.613 227.374L326.76 230.234C326.94 229.909 327.125 229.581 327.313 229.247L322.186 226.351ZM386.017 193.472C378.408 193.472 366.321 195.11 354.245 199.974C342.16 204.842 329.843 213.043 322.198 226.331L327.301 229.267C334.083 217.481 345.136 209.992 356.445 205.436C367.764 200.877 379.097 199.361 386.017 199.361V193.472ZM371.295 258.247C371.874 258.247 372.28 258.441 372.458 258.543C372.557 258.6 372.626 258.651 372.666 258.683C372.707 258.716 372.729 258.738 372.734 258.742C372.74 258.749 372.708 258.717 372.641 258.626C372.576 258.537 372.493 258.412 372.394 258.244C371.985 257.548 371.464 256.383 370.962 254.756C369.965 251.527 369.135 246.785 369.283 241.024C369.576 229.56 373.736 214.059 388.18 198.414L383.854 194.419C368.397 211.162 363.724 228.048 363.396 240.874C363.232 247.258 364.145 252.638 365.335 256.493C365.927 258.409 366.611 260.027 367.318 261.229C367.666 261.819 368.077 262.412 368.561 262.897C368.92 263.258 369.873 264.136 371.295 264.136V258.247ZM489.499 252.39C476.119 250.408 454.177 248.333 431.701 248.531C409.337 248.728 385.977 251.172 370.062 258.518L372.529 263.865C387.234 257.078 409.512 254.615 431.753 254.419C453.884 254.224 475.518 256.272 488.636 258.215L489.499 252.39ZM403.056 316.012C409.831 308.289 422.335 296.091 437.791 284.671C453.27 273.235 471.513 262.726 489.782 258.159L488.354 252.446C469.031 257.277 450.072 268.275 434.292 279.935C418.489 291.61 405.676 304.096 398.63 312.128L403.056 316.012ZM402.82 312.107C402.833 312.119 402.861 312.148 402.899 312.192C402.933 312.23 403.003 312.313 403.084 312.431C403.145 312.522 403.319 312.786 403.44 313.173C403.546 313.511 403.788 314.533 403.125 315.591C402.446 316.675 401.387 316.895 400.997 316.941C400.573 316.991 400.247 316.933 400.137 316.912C399.993 316.884 399.887 316.851 399.84 316.836C399.787 316.818 399.752 316.805 399.741 316.8L401.945 311.339C401.828 311.292 401.567 311.19 401.248 311.129C401.104 311.101 400.749 311.041 400.305 311.093C399.895 311.142 398.822 311.369 398.135 312.464C397.465 313.534 397.708 314.571 397.819 314.928C397.946 315.335 398.132 315.622 398.212 315.74C398.389 315.999 398.575 316.19 398.657 316.271L402.82 312.107ZM398.628 312.129L398.524 312.248L402.953 316.129L403.057 316.01L398.628 312.129ZM434.759 332.349C423.001 324.511 415.234 319.445 410.236 316.27C407.738 314.683 405.919 313.56 404.633 312.795C403.425 312.077 402.516 311.57 401.944 311.339L399.741 316.8C399.733 316.797 399.864 316.854 400.225 317.051C400.557 317.233 401.015 317.495 401.624 317.857C402.839 318.579 404.604 319.668 407.078 321.24C412.024 324.382 419.751 329.421 431.493 337.249L434.759 332.349ZM471.402 399.574C471.402 385.228 464.115 351.92 434.759 332.349L431.493 337.249C458.668 355.365 465.513 386.44 465.513 399.574H471.402ZM434.754 381.597C446.452 387.446 454.18 392.042 459.068 395.381C461.514 397.051 463.217 398.385 464.339 399.382C465.561 400.468 465.852 400.946 465.824 400.891L471.091 398.257C470.573 397.22 469.514 396.103 468.252 394.981C466.889 393.77 464.973 392.282 462.389 390.518C457.218 386.986 449.243 382.258 437.387 376.33L434.754 381.597ZM369.894 390.304C376.025 386.531 386.759 381.517 398.789 378.896C410.847 376.27 423.819 376.13 434.754 381.597L437.387 376.33C424.767 370.02 410.258 370.371 397.536 373.143C384.784 375.92 373.436 381.211 366.808 385.289L369.894 390.304ZM429.928 410.155C424.692 398.374 412.864 391.881 400.97 388.429C388.996 384.953 376.28 384.351 368.167 384.858L368.535 390.735C376.126 390.261 388.141 390.837 399.329 394.084C410.597 397.354 420.361 403.129 424.547 412.547L429.928 410.155ZM328.502 499.342C347.229 489.485 374.761 473.355 396.475 456.983C407.312 448.813 416.849 440.471 423.105 432.726C426.232 428.855 428.65 424.999 429.951 421.271C431.262 417.513 431.497 413.687 429.928 410.155L424.547 412.547C425.333 414.315 425.372 416.518 424.391 419.331C423.399 422.175 421.428 425.431 418.525 429.026C412.721 436.21 403.636 444.21 392.93 452.282C371.559 468.395 344.327 484.358 325.759 494.131L328.502 499.342ZM450.792 493.792H327.131V499.68H450.792V493.792ZM498.333 430.426C485.437 451.528 474.473 466.626 466.035 476.908C457.535 487.264 451.725 492.576 449.159 494.286L452.425 499.186C455.748 496.971 462.009 491.094 470.586 480.644C479.224 470.119 490.343 454.793 503.357 433.497L498.333 430.426ZM498.118 300.578C503.413 313.575 509.811 335.801 511.674 359.978C513.541 384.194 510.83 409.976 498.333 430.426L503.357 433.497C516.77 411.548 519.457 384.333 517.545 359.526C515.63 334.68 509.073 311.859 503.572 298.356L498.118 300.578ZM530.268 366.842C525.5 326.317 510.36 303.745 502.761 297.232L498.929 301.703C505.07 306.967 519.766 327.97 524.42 367.53L530.268 366.842ZM476.712 498.489C486.622 485.111 501.154 462.57 512.634 438.299C524.049 414.165 532.727 387.747 530.268 366.842L524.42 367.53C526.671 386.668 518.665 411.776 507.311 435.781C496.021 459.65 481.7 481.862 471.98 494.984L476.712 498.489ZM527.344 493.792H474.346V499.68H527.344V493.792ZM530.476 445.649C523.36 464.624 520.781 477.246 520.573 485.399C520.469 489.47 520.95 492.611 521.896 494.919C522.833 497.202 524.406 499.037 526.63 499.593L528.058 493.88C528.319 493.945 527.88 493.989 527.344 492.684C526.819 491.403 526.367 489.158 526.46 485.549C526.644 478.343 528.972 466.429 535.989 447.717L530.476 445.649ZM585.981 471.996C580.553 459.659 571.362 443.105 561.455 434.388C556.546 430.068 550.724 427.038 544.741 428.628C538.793 430.209 534.096 435.994 530.476 445.649L535.989 447.717C539.435 438.529 543.179 435.136 546.254 434.319C549.294 433.511 553.078 434.86 557.565 438.809C566.453 446.629 575.223 462.168 580.591 474.367L585.981 471.996ZM543.852 325.243C554.401 337.635 568.727 354.49 577.857 378.203C586.959 401.844 590.953 432.476 580.438 472.432L586.133 473.931C596.957 432.799 592.906 400.901 583.352 376.087C573.826 351.345 558.887 333.821 548.336 321.426L543.852 325.243ZM530.328 301.928C529.718 305.588 531.574 309.33 533.91 312.808C536.34 316.425 539.886 320.584 543.852 325.243L548.336 321.426C544.288 316.67 540.998 312.8 538.798 309.524C536.505 306.11 535.936 304.097 536.137 302.896L530.328 301.928ZM617.103 326.337C603.794 318.943 583.64 308.713 566.458 302.093C557.908 298.799 549.875 296.311 543.722 295.595C540.678 295.241 537.756 295.275 535.384 296.113C532.799 297.025 530.826 298.938 530.328 301.928L536.137 302.896C536.227 302.352 536.444 301.983 537.345 301.665C538.457 301.272 540.316 301.127 543.041 301.444C548.425 302.071 555.887 304.331 564.341 307.588C581.165 314.07 601.053 324.156 614.243 331.484L617.103 326.337ZM538.364 267.316C555.502 274.317 575.173 282.365 590.115 292.535C605.15 302.768 614.409 314.457 612.749 328.566L618.597 329.254C620.664 311.691 608.89 298.191 593.429 287.667C577.875 277.081 557.585 268.806 540.591 261.865L538.364 267.316ZM500.845 243.525C500.845 246.39 502.582 248.746 504.592 250.587C506.661 252.482 509.519 254.29 512.818 256.053C519.429 259.585 528.515 263.293 538.364 267.316L540.591 261.865C530.632 257.797 521.875 254.216 515.593 250.86C512.447 249.179 510.097 247.644 508.569 246.244C506.982 244.792 506.734 243.904 506.734 243.525H500.845ZM567.672 202.444C556.778 205.91 540.42 212.003 526.733 219.046C519.903 222.56 513.605 226.378 508.971 230.302C504.511 234.079 500.845 238.576 500.845 243.525H506.734C506.734 241.408 508.465 238.447 512.777 234.796C516.915 231.291 522.762 227.711 529.427 224.282C542.729 217.437 558.758 211.459 569.457 208.055L567.672 202.444ZM480.178 206.565C505.421 199.807 530.372 193.143 567.471 207.983L569.658 202.516C530.694 186.93 504.144 194.053 478.655 200.877L480.178 206.565ZM436.07 214.082C452.154 214.082 466.308 210.278 480.178 206.565L478.655 200.877C464.704 204.612 451.268 208.194 436.07 208.194V214.082ZM421.616 139.248C416.147 151.182 410.067 169.289 409.94 184.615C409.876 192.276 411.294 199.657 415.454 205.181C419.729 210.856 426.522 214.082 436.07 214.082V208.194C427.953 208.194 423.091 205.531 420.158 201.638C417.111 197.592 415.769 191.724 415.828 184.664C415.946 170.546 421.643 153.322 426.97 141.701L421.616 139.248ZM327.313 229.247C334.791 216.012 348.476 196.145 365.728 178.757C383.041 161.309 403.583 146.725 424.752 143.383L423.834 137.566C400.808 141.202 379.165 156.854 361.548 174.61C343.87 192.427 329.88 212.733 322.186 226.351L327.313 229.247ZM326.771 230.214C326.945 229.895 327.122 229.58 327.301 229.267L322.197 226.331C321.996 226.682 321.797 227.036 321.602 227.394L326.771 230.214ZM199.042 438.238C189.125 432.571 175.106 420.852 165.613 404.293C156.17 387.82 151.209 366.59 159.167 341.58L153.555 339.795C145.025 366.605 150.368 389.54 160.505 407.221C170.591 424.816 185.427 437.24 196.12 443.351L199.042 438.238ZM197.604 408.042C195.244 426.917 194.637 437.662 194.637 440.794H200.525C200.525 438.038 201.095 427.584 203.447 408.772L197.604 408.042ZM220.909 419.052C218.453 413.157 214.462 405.067 210.572 400.823C209.583 399.744 208.43 398.719 207.135 398.095C205.774 397.438 204.009 397.13 202.261 398.014C200.659 398.823 199.675 400.344 199.036 401.901C198.378 403.504 197.914 405.557 197.604 408.042L203.447 408.772C203.725 406.545 204.102 405.065 204.483 404.138C204.883 403.164 205.136 403.158 204.918 403.269C204.553 403.453 204.317 403.273 204.577 403.399C204.904 403.557 205.465 403.967 206.231 404.802C209.358 408.213 213.023 415.434 215.473 421.316L220.909 419.052ZM243.207 402.906C239.421 400.743 233.225 398.719 227.375 400.598C221.13 402.604 216.516 408.599 215.265 419.859L221.118 420.509C222.222 410.57 225.95 407.241 229.176 406.205C232.797 405.042 237.201 406.257 240.285 408.019L243.207 402.906ZM303.569 376.229C303.96 370.747 303.257 366.237 301.435 362.756C299.57 359.192 296.643 356.928 293.114 355.858C286.34 353.804 277.709 356.21 269.775 360.556C261.69 364.983 253.635 371.79 247.761 379.638C241.917 387.446 237.986 396.628 238.814 405.729L244.678 405.196C244.033 398.103 247.095 390.355 252.476 383.166C257.827 376.016 265.23 369.758 272.603 365.72C280.126 361.601 286.953 360.143 291.405 361.493C293.488 362.125 295.116 363.381 296.218 365.487C297.363 367.676 298.04 370.987 297.695 375.81L303.569 376.229ZM233.44 431.914C244.504 429.902 261.214 424.791 275.537 415.915C289.813 407.068 302.293 394.096 303.569 376.229L297.695 375.81C296.616 390.919 286.032 402.483 272.435 410.909C258.885 419.307 242.913 424.206 232.386 426.12L233.44 431.914ZM244.452 448.467L235.619 427.857L230.207 430.177L239.04 450.787L244.452 448.467ZM219.285 458.249C221.65 457.304 225.671 455.867 229.951 454.671C234.293 453.458 238.634 452.571 241.746 452.571V446.683C237.792 446.683 232.808 447.759 228.367 449C223.863 450.258 219.64 451.765 217.098 452.782L219.285 458.249ZM291.615 482.02C284.106 482.49 271.36 481.644 257.922 477.508C244.494 473.374 230.593 466.023 220.47 453.651L215.913 457.38C226.989 470.918 242.04 478.78 256.19 483.136C270.331 487.489 283.79 488.409 291.983 487.897L291.615 482.02ZM277.388 448.31C272.248 458.59 273.251 467.441 276.826 474.255C280.314 480.905 286.135 485.419 290.482 487.592L293.116 482.325C289.611 480.573 284.833 476.843 282.04 471.519C279.334 466.36 278.374 459.507 282.655 450.944L277.388 448.31ZM331.132 438.046C324.491 435.492 313.917 432.872 303.656 433.363C293.392 433.854 282.776 437.536 277.388 448.31L282.655 450.944C286.69 442.875 294.721 439.686 303.938 439.245C313.159 438.804 322.9 441.189 329.018 443.542L331.132 438.046ZM333.246 383.72C321.237 412.54 324.042 434.192 327.369 441.954L332.781 439.634C330.219 433.657 327.135 413.695 338.682 385.985L333.246 383.72ZM442.428 361.335C427.047 358.855 403.219 356.911 381.661 359.179C370.886 360.313 360.516 362.514 352.01 366.331C343.505 370.148 336.581 375.715 333.246 383.72L338.682 385.985C341.235 379.856 346.702 375.168 354.421 371.704C362.139 368.24 371.827 366.135 382.277 365.036C403.166 362.838 426.447 364.722 441.49 367.149L442.428 361.335ZM380.623 318.766C385.647 326.303 396.839 335.899 408.381 344.653C420.045 353.5 432.487 361.794 440.398 366.739L443.519 361.745C435.728 356.876 423.437 348.682 411.94 339.961C400.32 331.148 389.92 322.096 385.523 315.5L380.623 318.766ZM422.976 270.335C414.021 274.813 401.115 282.453 391.579 290.854C386.832 295.036 382.71 299.586 380.417 304.203C378.081 308.907 377.493 314.072 380.623 318.766L385.523 315.5C383.941 313.128 383.942 310.344 385.691 306.822C387.484 303.213 390.944 299.261 395.471 295.273C404.484 287.333 416.9 279.957 425.61 275.602L422.976 270.335ZM365.407 284.746C382.275 284.746 412.222 278.776 424.955 275.837L423.631 270.1C410.847 273.05 381.515 278.857 365.407 278.857V284.746ZM344.803 237.441C344.3 244.987 344.588 256.381 347.18 266.005C348.474 270.811 350.404 275.411 353.296 278.862C356.26 282.4 360.268 284.746 365.407 284.746V278.857C362.301 278.857 359.856 277.523 357.809 275.08C355.69 272.55 354.05 268.87 352.866 264.474C350.502 255.696 350.2 245.008 350.679 237.833L344.803 237.441ZM311.092 257.936C321.625 263.202 330.647 260.991 337.405 256.062C343.97 251.272 348.377 243.974 350.475 238.73L345.007 236.543C343.179 241.113 339.342 247.36 333.934 251.305C328.718 255.11 322.037 256.825 313.726 252.669L311.092 257.936ZM342.309 147.732C332.925 162.549 320.012 185.693 311.797 206.987C307.698 217.612 304.694 227.964 303.964 236.673C303.246 245.236 304.663 253.173 310.643 257.658L314.176 252.947C310.734 250.366 309.158 245.201 309.832 237.165C310.494 229.276 313.269 219.532 317.291 209.106C325.319 188.296 338.021 165.509 347.284 150.883L342.309 147.732ZM276.974 241.356C279.836 230.861 286.772 213.632 298.225 196.429C309.677 179.226 325.519 162.238 346.113 151.941L343.48 146.674C321.676 157.576 305.131 175.429 293.323 193.165C281.516 210.901 274.319 228.71 271.293 239.806L276.974 241.356ZM271.302 186.775C269.299 193.787 266.894 204.892 266.19 215.507C265.838 220.811 265.902 226.107 266.705 230.758C267.498 235.353 269.073 239.685 272.051 242.663L276.215 238.499C274.482 236.766 273.212 233.835 272.508 229.757C271.814 225.734 271.731 220.946 272.066 215.897C272.735 205.802 275.042 195.12 276.964 188.392L271.302 186.775ZM258.101 201.811L275.766 190.033L272.5 185.134L254.834 196.911L258.101 201.811ZM238.788 281.522C237.826 271.424 237.683 255.203 240.378 239.535C243.1 223.712 248.591 209.217 258.275 201.685L254.66 197.037C243.145 205.993 237.349 222.413 234.575 238.536C231.774 254.814 231.925 271.569 232.926 282.081L238.788 281.522ZM196.719 360.435C204.161 352.993 212.689 338.353 220.229 323.469C227.832 308.46 234.639 292.774 238.591 282.895L233.123 280.708C229.224 290.457 222.487 305.981 214.976 320.808C207.402 335.759 199.245 349.581 192.555 356.272L196.719 360.435ZM153.911 342.321C157.029 346.998 162.761 353.517 169.973 357.986C177.21 362.469 186.348 365.109 195.797 361.06L193.477 355.647C186.437 358.664 179.382 356.888 173.075 352.98C166.743 349.057 161.581 343.21 158.811 339.054L153.911 342.321ZM247.62 332.147C248.094 327.406 249.38 320.15 251.654 313.866C252.793 310.721 254.132 307.951 255.649 305.882C257.181 303.793 258.696 302.681 260.126 302.323L258.697 296.611C255.416 297.431 252.859 299.729 250.9 302.4C248.927 305.091 247.359 308.431 246.117 311.862C243.632 318.728 242.268 326.489 241.76 331.562L247.62 332.147ZM296.152 296.955L243.155 329.342L246.225 334.367L299.223 301.979L296.152 296.955ZM260.126 302.323C264.413 301.252 271.417 300.988 278.701 301.159C285.891 301.329 293.018 301.911 297.362 302.393L298.013 296.541C293.524 296.042 286.225 295.446 278.84 295.272C271.549 295.1 263.832 295.327 258.697 296.611L260.126 302.323Z" fill="#F5F5F5"/>
<path d="M158.141 670.45C155.785 583.299 273.95 513.42 331.855 490.847L455.516 496.736L449.627 502.625C376.608 575.644 436.869 701.856 476.126 755.835C452.572 761.724 390.152 771.146 328.911 761.724C267.669 752.302 189.547 696.949 158.141 670.45Z" fill="#F5F5F5"/>
<path d="M708.727 599.787C632.175 705.782 532.068 741.114 517.346 741.114C418.418 635.119 444.72 533.049 470.238 496.736L526.179 490.847C552.678 537.956 582.121 576.232 708.727 599.787Z" fill="#F5F5F5"/>
</svg>
