<svg width="452" height="136" viewBox="0 0 452 136" fill="none" xmlns="http://www.w3.org/2000/svg">
<circle cx="68" cy="68" r="68" fill="#CB2715"/>
<circle cx="68" cy="68" r="62" fill="#CB2715" stroke="#F5F5F5" stroke-width="2.4"/>
<path fill-rule="evenodd" clip-rule="evenodd" d="M55.1978 39C55.2289 38.9439 55.2608 38.887 55.2934 38.8294C57.7434 34.5715 63.2304 33.5 65.6978 33.5C60.62 39 62.6978 44.5 63.1978 44.5C68.3978 42.1 78.6978 42.8333 83.1978 43.5C76.8139 45.096 70.5627 50.8045 68.2155 53.4798C68.1709 53.4618 68.1697 53.4719 68.1978 53.5L68.2155 53.4798C68.4351 53.5684 69.707 54.3395 73.6978 57C78.4978 60.2 79.6978 65.6667 79.6978 68C79.5311 67.6667 78.1978 66.5 74.1978 64.5C70.1978 62.5 64.8644 64.6667 62.6978 66C65.3644 65.8333 71.0978 66.4 72.6978 70C74.2978 73.6 62.0311 81.1667 55.6978 84.5H76.6978C77.6978 83.8333 80.7978 80.7 85.1978 73.5C89.5978 66.3 87.0311 55.5 85.1978 51C86.3644 52 88.8978 55.7 89.6978 62.5C90.4978 69.3 84.0311 80 80.6978 84.5H89.6978C89.0311 84.3333 88.2978 82.4 90.6978 76C93.0978 69.6 97.3644 76.3333 99.1978 80.5C102.822 66.7296 96.4651 59.2625 92.8818 55.0531C91.521 53.4545 90.5601 52.3257 90.6978 51.5C91.0978 49.1 100.198 53.5 104.698 56C105.331 50.6213 97.5545 47.4449 91.7583 45.0773C88.3946 43.7033 85.6978 42.6016 85.6978 41.5C85.6978 39.1 93.0311 36.1667 96.6978 35C90.2393 32.4166 85.8665 33.5873 81.5587 34.7405C79.1965 35.3729 76.8539 36 74.1978 36C68.1978 36 70.3644 28 72.1978 24C64.6926 25.185 57.87 34.2692 55.2934 38.8294C55.261 38.8857 55.2291 38.9426 55.1978 39ZM26.6978 58C23.8978 66.8 30.1978 73 33.6978 75C33.6978 74.5 33.7978 72.7 34.1978 69.5C34.5978 66.3 36.3644 69.5 37.1978 71.5C37.5978 67.9 40.0311 68.3333 41.1978 69C40.6978 63.5 51.6978 57 51.1978 64C50.7978 69.6 43.3644 72.3333 39.6978 73L41.1978 76.5C39.9978 76.5 38.0311 77.1667 37.1978 77.5C40.7978 81.9 47.0311 82.6667 49.6978 82.5C48.3644 81.8333 46.0978 79.7 47.6978 76.5C49.2978 73.3 54.0311 74.1667 56.1978 75C55.6978 73.8333 55.1978 70.3 57.1978 65.5C59.1978 60.7 70.0311 61.1667 75.1978 62C72.5311 60.3333 66.7978 56.4 65.1978 54C63.5978 51.6 69.1978 48 72.1978 46.5C70.0311 47 64.9978 48 62.1978 48C59.3978 48 59.0311 43 59.1978 40.5C58.5311 42.1667 56.3978 45.1 53.1978 43.5C49.9978 41.1 55.5311 30.5 58.6978 25.5C51.4978 29.1 47.6978 37.3333 46.6978 41C45.0978 39.4 46.0311 34.3333 46.6978 32L43.6978 34C40.0978 36.8 39.8644 44.5 40.1978 48C38.8644 51.3333 35.5978 58.6 33.1978 61C30.3978 62.2 27.6978 59.5 26.6978 58ZM44.1978 51C42.5978 51.4 41.8644 54.8333 41.6978 56.5L50.6978 51C49.1978 50.8333 45.7978 50.6 44.1978 51Z" fill="#F5F5F5"/>
<path d="M55.1978 39L54.7588 38.7606L55.6348 39.2428L55.1978 39ZM65.6978 33.5L66.0651 33.8392L66.8399 33H65.6978V33.5ZM63.1978 44.5V45H63.3076L63.4073 44.954L63.1978 44.5ZM83.1978 43.5L83.319 43.9851L83.271 43.0054L83.1978 43.5ZM68.1978 53.5L67.8442 53.8535L68.2218 54.2312L68.5738 53.8295L68.1978 53.5ZM73.6978 57L73.4204 57.416L73.6978 57ZM79.6978 68L79.2505 68.2236L80.1978 68H79.6978ZM62.6978 66L62.4357 65.5742L62.7289 66.499L62.6978 66ZM55.6978 84.5L55.4649 84.0575L55.6978 85V84.5ZM76.6978 84.5V85H76.8491L76.9751 84.916L76.6978 84.5ZM85.1978 51L85.5232 50.6204L84.7347 51.1886L85.1978 51ZM89.6978 62.5L89.2012 62.5584L89.6978 62.5ZM80.6978 84.5L80.296 84.2024L79.7052 85H80.6978V84.5ZM89.6978 84.5V85L89.819 84.0149L89.6978 84.5ZM99.1978 80.5L98.7401 80.7014L99.3168 82.0122L99.6813 80.6272L99.1978 80.5ZM92.8818 55.0531L93.2625 54.729L92.8818 55.0531ZM90.6978 51.5L90.2046 51.4178L90.6978 51.5ZM104.698 56L104.455 56.4371L105.107 56.7994L105.194 56.0584L104.698 56ZM91.7583 45.0773L91.9473 44.6144H91.9473L91.7583 45.0773ZM96.6978 35L96.8494 35.4765L98.1782 35.0537L96.8834 34.5358L96.6978 35ZM81.5587 34.7405L81.688 35.2235L81.5587 34.7405ZM72.1978 24L72.6523 24.2083L73.0408 23.3607L72.1198 23.5061L72.1978 24ZM33.6978 75L33.4497 75.4341L34.1978 75.8616L34.1978 75H33.6978ZM26.6978 58L27.1138 57.7226L26.5367 56.8571L26.2213 57.8484L26.6978 58ZM34.1978 69.5L34.6939 69.562L34.1978 69.5ZM37.1978 71.5L36.7362 71.6923L37.4809 73.4795L37.6947 71.5552L37.1978 71.5ZM41.1978 69L40.9497 69.4341L41.7825 69.91L41.6957 68.9547L41.1978 69ZM51.1978 64L50.699 63.9644L51.1978 64ZM39.6978 73L39.6083 72.5081L38.991 72.6203L39.2382 73.197L39.6978 73ZM41.1978 76.5V77H41.956L41.6573 76.303L41.1978 76.5ZM37.1978 77.5L37.0121 77.0358L36.3791 77.289L36.8108 77.8166L37.1978 77.5ZM49.6978 82.5L49.7289 82.999L51.5822 82.8832L49.9214 82.0528L49.6978 82.5ZM56.1978 75L56.0183 75.4667L57.124 75.892L56.6573 74.803L56.1978 75ZM57.1978 65.5L57.6593 65.6923L57.1978 65.5ZM75.1978 62L75.1181 62.4936L75.4628 61.576L75.1978 62ZM65.1978 54L65.6138 53.7227L65.1978 54ZM72.1978 46.5L72.4214 46.9472L72.0853 46.0128L72.1978 46.5ZM59.1978 40.5L59.6966 40.5333L58.7335 40.3143L59.1978 40.5ZM53.1978 43.5L52.8978 43.9L52.9338 43.9271L52.9741 43.9472L53.1978 43.5ZM58.6978 25.5L59.1202 25.7675L60.082 24.2489L58.4741 25.0528L58.6978 25.5ZM46.6978 41L46.3442 41.3536L46.9534 41.9628L47.1801 41.1316L46.6978 41ZM46.6978 32L47.1785 32.1374L47.5522 30.8294L46.4204 31.584L46.6978 32ZM43.6978 34L43.4204 33.584L43.4052 33.5941L43.3908 33.6053L43.6978 34ZM40.1978 48L40.662 48.1857L40.707 48.0732L40.6955 47.9526L40.1978 48ZM33.1978 61L33.3947 61.4596L33.4832 61.4216L33.5513 61.3536L33.1978 61ZM41.6978 56.5L41.2002 56.4502L41.1001 57.4512L41.9585 56.9266L41.6978 56.5ZM44.1978 51L44.319 51.485L44.1978 51ZM50.6978 51L50.9585 51.4266L52.2057 50.6644L50.753 50.503L50.6978 51ZM54.8581 38.5834C54.8249 38.642 54.7925 38.7 54.7607 38.7572L55.6348 39.2428C55.6654 39.1878 55.6967 39.1319 55.7287 39.0753L54.8581 38.5834ZM65.6978 33C64.4056 33 62.353 33.2782 60.3023 34.1042C58.25 34.9308 56.1584 36.3236 54.86 38.58L55.7267 39.0787C56.8784 37.0772 58.7553 35.8053 60.6759 35.0318C62.598 34.2575 64.5226 34 65.6978 34V33ZM63.1978 44C63.296 44 63.3649 44.0329 63.3953 44.0503C63.412 44.0599 63.4237 44.0686 63.4305 44.074C63.4374 44.0796 63.4412 44.0833 63.442 44.0841C63.4431 44.0853 63.4376 44.0798 63.4263 44.0643C63.4153 44.0493 63.4011 44.028 63.3844 43.9995C63.3149 43.8814 63.2264 43.6834 63.1411 43.4072C62.9718 42.8587 62.8309 42.0536 62.8559 41.0753C62.9057 39.1284 63.6123 36.496 66.0651 33.8392L65.3304 33.1608C62.7055 36.004 61.912 38.8716 61.8563 41.0497C61.8285 42.1339 61.9835 43.0475 62.1856 43.7022C62.2861 44.0275 62.4023 44.3022 62.5223 44.5064C62.5813 44.6067 62.6513 44.7073 62.7333 44.7897C62.7943 44.8509 62.9561 45 63.1978 45V44ZM83.271 43.0054C80.9988 42.6688 77.2727 42.3164 73.4559 42.35C69.6579 42.3834 65.691 42.7986 62.9882 44.046L63.4073 44.954C65.9045 43.8014 69.6876 43.3832 73.4647 43.35C77.2228 43.3169 80.8967 43.6646 83.1245 43.9946L83.271 43.0054ZM68.5913 53.8095C69.7419 52.4981 71.8652 50.4266 74.49 48.4873C77.1185 46.5452 80.2166 44.7607 83.319 43.9851L83.0765 43.0149C79.7951 43.8353 76.5756 45.703 73.8957 47.683C71.2122 49.6657 69.0363 51.7861 67.8396 53.15L68.5913 53.8095ZM68.5513 53.1465C68.5534 53.1485 68.5582 53.1535 68.5647 53.1608C68.5704 53.1674 68.5824 53.1814 68.596 53.2015C68.6065 53.217 68.636 53.2617 68.6566 53.3275C68.6744 53.3849 68.7157 53.5584 68.6031 53.7381C68.4877 53.9223 68.3078 53.9596 68.2417 53.9674C68.1697 53.9759 68.1142 53.966 68.0957 53.9624C68.0711 53.9577 68.0532 53.9521 68.0452 53.9495C68.0362 53.9466 68.0303 53.9442 68.0284 53.9435L68.4025 53.0161C68.3827 53.0081 68.3385 52.9908 68.2843 52.9804C68.2598 52.9757 68.1996 52.9654 68.1241 52.9743C68.0545 52.9826 67.8723 53.021 67.7557 53.2071C67.6419 53.3887 67.6831 53.5649 67.702 53.6255C67.7235 53.6946 67.7552 53.7433 67.7688 53.7634C67.7987 53.8074 67.8304 53.8398 67.8442 53.8535L68.5513 53.1465ZM67.8394 53.1503L67.8217 53.1705L68.5738 53.8295L68.5915 53.8093L67.8394 53.1503ZM73.9751 56.584C71.9784 55.2528 70.6593 54.3927 69.8106 53.8534C69.3865 53.5839 69.0776 53.3932 68.8591 53.2633C68.6539 53.1413 68.4995 53.0552 68.4025 53.0161L68.0284 53.9435C68.027 53.9429 68.0493 53.9526 68.1106 53.9861C68.167 54.0169 68.2447 54.0614 68.348 54.1229C68.5545 54.2456 68.8542 54.4305 69.2743 54.6975C70.1142 55.2311 71.4264 56.0867 73.4204 57.416L73.9751 56.584ZM80.1978 68C80.1978 65.5637 78.9603 59.9074 73.9751 56.584L73.4204 57.416C78.0352 60.4926 79.1978 65.7696 79.1978 68H80.1978ZM73.9741 64.9472C75.9608 65.9405 77.2732 66.721 78.1033 67.2879C78.5187 67.5716 78.8079 67.7981 78.9984 67.9675C79.2058 68.1519 79.2553 68.2331 79.2505 68.2236L80.145 67.7764C80.0569 67.6003 79.8772 67.4106 79.6628 67.22C79.4314 67.0144 79.106 66.7618 78.6672 66.4621C77.789 65.8623 76.4347 65.0595 74.4214 64.0528L73.9741 64.9472ZM62.9598 66.4258C64.001 65.7851 65.8238 64.9335 67.8667 64.4885C69.9144 64.0425 72.1172 64.0188 73.9741 64.9472L74.4214 64.0528C72.2783 62.9812 69.8144 63.0408 67.6538 63.5115C65.4883 63.9832 63.5612 64.8816 62.4357 65.5742L62.9598 66.4258ZM73.1547 69.7969C72.2655 67.7963 70.2569 66.6936 68.2371 66.1073C66.2037 65.5171 64.0442 65.4149 62.6666 65.501L62.7289 66.499C64.018 66.4185 66.0585 66.5162 67.9584 67.0677C69.8719 67.6231 71.53 68.6037 72.2408 70.2031L73.1547 69.7969ZM55.9306 84.9425C59.1109 83.2686 63.7863 80.5295 67.4738 77.7492C69.3141 76.3617 70.9337 74.9451 71.9961 73.6298C72.527 72.9725 72.9376 72.3177 73.1585 71.6846C73.3812 71.0465 73.4212 70.3967 73.1547 69.7969L72.2408 70.2031C72.3743 70.5033 72.381 70.8775 72.2143 71.3552C72.0459 71.838 71.7112 72.391 71.2182 73.0014C70.2327 74.2216 68.6898 75.58 66.8717 76.9508C63.2425 79.6871 58.618 82.398 55.4649 84.0575L55.9306 84.9425ZM76.6978 84H55.6978V85H76.6978V84ZM84.7711 73.2393C82.5812 76.8228 80.7194 79.3867 79.2863 81.1328C77.8428 82.8915 76.8562 83.7935 76.4204 84.084L76.9751 84.916C77.5393 84.5399 78.6027 83.5419 80.0592 81.7672C81.5262 79.9799 83.4143 77.3772 85.6244 73.7607L84.7711 73.2393ZM84.7347 51.1886C85.6339 53.3957 86.7203 57.1702 87.0367 61.2759C87.3537 65.3882 86.8934 69.7665 84.7711 73.2393L85.6244 73.7607C87.9021 70.0335 88.3585 65.4118 88.0338 61.1991C87.7086 56.9798 86.595 53.1043 85.6608 50.8114L84.7347 51.1886ZM90.1943 62.4416C89.3847 55.5597 86.8136 51.7264 85.5232 50.6204L84.8724 51.3796C85.9153 52.2736 88.4108 55.8403 89.2012 62.5584L90.1943 62.4416ZM81.0995 84.7976C82.7823 82.5258 85.2503 78.6979 87.1997 74.5763C89.1383 70.4778 90.612 65.9916 90.1943 62.4416L89.2012 62.5584C89.5835 65.8084 88.2239 70.0722 86.2958 74.1487C84.3786 78.2021 81.9465 81.9742 80.296 84.2024L81.0995 84.7976ZM89.6978 84H80.6978V85H89.6978V84ZM90.2296 75.8244C89.0212 79.0468 88.5833 81.1902 88.5479 82.5747C88.5302 83.2661 88.6119 83.7995 88.7727 84.1913C88.9317 84.5791 89.1989 84.8907 89.5765 84.9851L89.819 84.0149C89.8633 84.026 89.7888 84.0334 89.6978 83.8118C89.6086 83.5943 89.5319 83.2131 89.5476 82.6003C89.5789 81.3765 89.9743 79.3532 91.1659 76.1756L90.2296 75.8244ZM99.6554 80.2986C98.7336 78.2036 97.1729 75.3924 95.4905 73.9121C94.6568 73.1785 93.6681 72.6639 92.6521 72.934C91.642 73.2025 90.8445 74.1848 90.2296 75.8244L91.1659 76.1756C91.751 74.6152 92.3869 74.0392 92.909 73.9004C93.4253 73.7632 94.0679 73.9923 94.83 74.6629C96.3393 75.9909 97.8286 78.6297 98.7401 80.7014L99.6554 80.2986ZM92.5011 55.3772C94.2925 57.4816 96.7254 60.3439 98.2758 64.3708C99.8215 68.3854 100.5 73.5874 98.7142 80.3728L99.6813 80.6272C101.519 73.6422 100.831 68.2253 99.209 64.0115C97.5914 59.8098 95.0544 56.8339 93.2625 54.729L92.5011 55.3772ZM90.2046 51.4178C90.101 52.0394 90.4161 52.6749 90.8128 53.2655C91.2254 53.8797 91.8277 54.5861 92.5011 55.3772L93.2625 54.729C92.5751 53.9214 92.0165 53.2641 91.6429 52.7079C91.2534 52.1281 91.1569 51.7863 91.1909 51.5822L90.2046 51.4178ZM104.941 55.5629C102.68 54.3073 99.2579 52.5701 96.34 51.4459C94.8881 50.8865 93.524 50.4641 92.479 50.3424C91.9621 50.2822 91.466 50.288 91.0631 50.4303C90.6242 50.5853 90.2892 50.9101 90.2046 51.4178L91.1909 51.5822C91.2063 51.4899 91.2432 51.4272 91.3961 51.3732C91.585 51.3065 91.9006 51.2818 92.3634 51.3357C93.2778 51.4422 94.545 51.826 95.9805 52.3791C98.8376 53.4799 102.215 55.1927 104.455 56.4371L104.941 55.5629ZM91.5692 45.5401C94.4795 46.729 97.82 48.0958 100.358 49.8228C102.911 51.5606 104.483 53.5455 104.201 55.9416L105.194 56.0584C105.545 53.0758 103.546 50.7832 100.92 48.9961C98.2789 47.1984 94.8332 45.7932 91.9473 44.6144L91.5692 45.5401ZM85.1978 41.5C85.1978 41.9865 85.4927 42.3866 85.834 42.6992C86.1853 43.0209 86.6707 43.3281 87.231 43.6275C88.3537 44.2273 89.8967 44.8569 91.5692 45.5401L91.9473 44.6144C90.2562 43.9236 88.769 43.3154 87.7023 42.7455C87.168 42.46 86.7688 42.1994 86.5094 41.9617C86.24 41.715 86.1978 41.5643 86.1978 41.5H85.1978ZM96.5462 34.5235C94.6963 35.1121 91.9183 36.1469 89.594 37.3429C88.4341 37.9397 87.3646 38.5881 86.5778 39.2544C85.8204 39.8958 85.1978 40.6595 85.1978 41.5H86.1978C86.1978 41.1405 86.4918 40.6375 87.224 40.0175C87.9268 39.4224 88.9197 38.8145 90.0515 38.2321C92.3105 37.0697 95.0325 36.0545 96.8494 35.4765L96.5462 34.5235ZM81.688 35.2235C85.9749 34.0759 90.2119 32.9442 96.5121 35.4642L96.8834 34.5358C90.2667 31.8891 85.758 33.0987 81.4294 34.2575L81.688 35.2235ZM74.1978 36.5C76.9292 36.5 79.3327 35.854 81.688 35.2235L81.4294 34.2575C79.0604 34.8917 76.7787 35.5 74.1978 35.5V36.5ZM71.7432 23.7917C70.8144 25.8183 69.782 28.8933 69.7603 31.4958C69.7494 32.7969 69.9903 34.0504 70.6968 34.9883C71.4227 35.9521 72.5762 36.5 74.1978 36.5V35.5C72.8193 35.5 71.9936 35.0479 71.4956 34.3867C70.9781 33.6996 70.7502 32.7031 70.7602 31.5042C70.7802 29.1067 71.7478 26.1817 72.6523 24.2083L71.7432 23.7917ZM55.7287 39.0753C56.9987 36.8277 59.3226 33.4539 62.2523 30.5012C65.1923 27.538 68.6807 25.0615 72.2757 24.4939L72.1198 23.5061C68.2096 24.1235 64.5341 26.7816 61.5424 29.7968C58.5404 32.8225 56.1647 36.2709 54.8581 38.5834L55.7287 39.0753ZM55.6367 39.2394C55.6662 39.1853 55.6962 39.1318 55.7267 39.0787L54.86 38.58C54.8257 38.6396 54.792 38.6998 54.7588 38.7606L55.6367 39.2394ZM33.9458 74.5659C32.2617 73.6035 29.8811 71.6134 28.269 68.8013C26.6654 66.004 25.8229 62.3987 27.1742 58.1516L26.2213 57.8484C24.7726 62.4013 25.6801 66.296 27.4015 69.2987C29.1144 72.2866 31.6338 74.3965 33.4497 75.4341L33.9458 74.5659ZM33.7016 69.438C33.3009 72.6433 33.1978 74.4681 33.1978 75H34.1978C34.1978 74.5319 34.2946 72.7567 34.6939 69.562L33.7016 69.438ZM37.6593 71.3077C37.2422 70.3066 36.5645 68.9328 35.9038 68.2121C35.7359 68.029 35.5401 67.8549 35.3202 67.7489C35.089 67.6374 34.7894 67.5849 34.4925 67.735C34.2205 67.8725 34.0533 68.1309 33.9448 68.3952C33.833 68.6675 33.7543 69.0161 33.7016 69.438L34.6939 69.562C34.7412 69.1839 34.8052 68.9325 34.8699 68.7751C34.9377 68.6098 34.9808 68.6087 34.9436 68.6275C34.8817 68.6588 34.8416 68.6283 34.8858 68.6496C34.9414 68.6764 35.0367 68.746 35.1667 68.8879C35.6977 69.4672 36.32 70.6934 36.7362 71.6923L37.6593 71.3077ZM41.4458 68.5659C40.8029 68.1985 39.7508 67.8548 38.7573 68.174C37.6968 68.5146 36.9133 69.5326 36.7008 71.4448L37.6947 71.5552C37.8822 69.8674 38.5154 69.302 39.0632 69.126C39.678 68.9285 40.426 69.1348 40.9497 69.4341L41.4458 68.5659ZM51.6965 64.0356C51.763 63.1047 51.6435 62.3387 51.3341 61.7477C51.0173 61.1423 50.5204 60.758 49.921 60.5762C48.7707 60.2273 47.305 60.6361 45.9576 61.374C44.5847 62.1258 43.2168 63.2817 42.2193 64.6145C41.2268 65.9405 40.5593 67.4997 40.6998 69.0453L41.6957 68.9547C41.5862 67.7503 42.1062 66.4345 43.0199 65.2137C43.9287 63.9995 45.1858 62.9367 46.4379 62.251C47.7155 61.5514 48.8749 61.3039 49.6308 61.5332C49.9845 61.6404 50.261 61.8538 50.4481 62.2113C50.6427 62.5831 50.7575 63.1453 50.699 63.9644L51.6965 64.0356ZM39.7872 73.4919C41.6662 73.1503 44.5039 72.2823 46.9361 70.775C49.3604 69.2726 51.4798 67.0698 51.6965 64.0356L50.699 63.9644C50.5158 66.5302 48.7184 68.494 46.4094 69.925C44.1083 71.351 41.396 72.183 39.6083 72.5081L39.7872 73.4919ZM41.6573 76.303L40.1573 72.803L39.2382 73.197L40.7382 76.697L41.6573 76.303ZM37.3834 77.9642C37.785 77.8036 38.4679 77.5596 39.1948 77.3566C39.9322 77.1506 40.6693 77 41.1978 77V76C40.5262 76 39.68 76.1828 38.9257 76.3934C38.1609 76.6071 37.4438 76.8631 37.0121 77.0358L37.3834 77.9642ZM49.6666 82.001C48.3913 82.0807 46.2268 81.9371 43.9449 81.2346C41.6645 80.5327 39.3037 79.2844 37.5847 77.1834L36.8108 77.8166C38.6918 80.1156 41.2477 81.4507 43.6507 82.1904C46.0521 82.9296 48.3376 83.086 49.7289 82.999L49.6666 82.001ZM47.2505 76.2764C46.3777 78.0221 46.5479 79.5251 47.155 80.6823C47.7474 81.8116 48.7359 82.5781 49.4741 82.9472L49.9214 82.0528C49.3263 81.7552 48.5148 81.1217 48.0405 80.2177C47.5809 79.3415 47.4178 78.1779 48.145 76.7236L47.2505 76.2764ZM56.3772 74.5333C55.2495 74.0996 53.4538 73.6547 51.7114 73.7381C49.9682 73.8215 48.1654 74.4466 47.2505 76.2764L48.145 76.7236C48.8301 75.3534 50.194 74.8118 51.7592 74.7369C53.3251 74.662 54.9793 75.0671 56.0183 75.4667L56.3772 74.5333ZM56.7362 65.3077C54.697 70.2019 55.1732 73.8788 55.7382 75.197L56.6573 74.803C56.2223 73.7879 55.6986 70.3981 57.6593 65.6923L56.7362 65.3077ZM75.2774 61.5064C72.6654 61.0851 68.6189 60.7551 64.9579 61.1402C63.1283 61.3327 61.3672 61.7065 59.9227 62.3548C58.4784 63.0029 57.3026 63.9484 56.7362 65.3077L57.6593 65.6923C58.0929 64.6516 59.0213 63.8554 60.3322 63.2671C61.6429 62.6789 63.2881 62.3214 65.0626 62.1348C68.6099 61.7616 72.5635 62.0816 75.1181 62.4936L75.2774 61.5064ZM64.7817 54.2773C65.635 55.5572 67.5355 57.1867 69.4956 58.6734C71.4764 60.1758 73.5892 61.5843 74.9328 62.424L75.4628 61.576C74.1396 60.7491 72.0524 59.3575 70.0999 57.8766C68.1266 56.3799 66.3605 54.8428 65.6138 53.7227L64.7817 54.2773ZM71.9741 46.0528C70.4533 46.8132 68.2617 48.1106 66.6422 49.5373C65.8361 50.2475 65.1362 51.0202 64.7468 51.8042C64.3501 52.603 64.2502 53.4801 64.7817 54.2773L65.6138 53.7227C65.3453 53.3199 65.3454 52.847 65.6424 52.249C65.9469 51.636 66.5344 50.965 67.3033 50.2877C68.8338 48.9394 70.9422 47.6868 72.4214 46.9472L71.9741 46.0528ZM62.1978 48.5C65.0623 48.5 70.1478 47.4862 72.3102 46.9872L72.0853 46.0128C69.9144 46.5138 64.9332 47.5 62.1978 47.5V48.5ZM58.6989 40.4667C58.6134 41.7483 58.6623 43.6832 59.1025 45.3175C59.3222 46.1336 59.65 46.9148 60.1411 47.5008C60.6445 48.1016 61.3251 48.5 62.1978 48.5V47.5C61.6704 47.5 61.2552 47.2734 60.9076 46.8586C60.5476 46.429 60.2691 45.8039 60.0681 45.0575C59.6666 43.5668 59.6154 41.7517 59.6966 40.5333L58.6989 40.4667ZM52.9741 43.9472C54.7627 44.8415 56.295 44.466 57.4424 43.6289C58.5574 42.8155 59.3058 41.5763 59.662 40.6857L58.7335 40.3143C58.4231 41.0904 57.7714 42.1511 56.8531 42.8211C55.9672 43.4673 54.8328 43.7585 53.4214 43.0528L52.9741 43.9472ZM58.2753 25.2325C56.6818 27.7486 54.4888 31.6789 53.0938 35.295C52.3976 37.0995 51.8876 38.8573 51.7636 40.3363C51.6416 41.7905 51.8822 43.1384 52.8978 43.9L53.4978 43.1C52.9133 42.6616 52.6456 41.7845 52.7601 40.4199C52.8725 39.0802 53.3437 37.4255 54.0267 35.655C55.3901 32.1211 57.547 28.2514 59.1202 25.7675L58.2753 25.2325ZM47.1801 41.1316C47.6662 39.3493 48.8441 36.4235 50.789 33.5021C52.7338 30.5807 55.4241 27.6958 58.9214 25.9472L58.4741 25.0528C54.7714 26.9042 51.9617 29.936 49.9566 32.9479C47.9514 35.9598 46.7293 38.9841 46.2154 40.8684L47.1801 41.1316ZM46.217 31.8626C45.8767 33.0535 45.4685 34.9394 45.3489 36.7419C45.2891 37.6427 45.3 38.5421 45.4363 39.3319C45.5709 40.1122 45.8385 40.8478 46.3442 41.3536L47.0513 40.6464C46.757 40.3522 46.5412 39.8544 46.4217 39.1619C46.3038 38.4787 46.2898 37.6656 46.3467 36.8081C46.4604 35.0939 46.8521 33.2798 47.1785 32.1374L46.217 31.8626ZM43.9751 34.416L46.9751 32.416L46.4204 31.584L43.4204 33.584L43.9751 34.416ZM40.6955 47.9526C40.5322 46.2376 40.5078 43.483 40.9655 40.8223C41.4278 38.1353 42.3602 35.6738 44.0047 34.3947L43.3908 33.6053C41.4354 35.1262 40.4511 37.9147 39.98 40.6527C39.5044 43.417 39.53 46.2624 39.7 48.0474L40.6955 47.9526ZM33.5513 61.3536C34.8152 60.0897 36.2633 57.6036 37.5438 55.076C38.8349 52.5272 39.9909 49.8634 40.662 48.1857L39.7335 47.8143C39.0713 49.4699 37.9272 52.1062 36.6517 54.624C35.3655 57.1631 33.9803 59.5103 32.8442 60.6464L33.5513 61.3536ZM26.2817 58.2774C26.8112 59.0716 27.7846 60.1787 29.0094 60.9375C30.2383 61.6989 31.7902 62.1472 33.3947 61.4596L33.0008 60.5404C31.8053 61.0528 30.6072 60.7511 29.5361 60.0875C28.4609 59.4213 27.5843 58.4284 27.1138 57.7226L26.2817 58.2774ZM42.1953 56.5497C42.2758 55.7445 42.4941 54.5124 42.8804 53.4451C43.0737 52.911 43.3011 52.4408 43.5588 52.0894C43.8189 51.7347 44.0763 51.5457 44.319 51.485L44.0765 50.5149C43.5192 50.6542 43.085 51.0445 42.7523 51.4981C42.4173 51.955 42.151 52.5222 41.9401 53.1048C41.518 54.2709 41.2864 55.5887 41.2002 56.4502L42.1953 56.5497ZM50.437 50.5733L41.437 56.0733L41.9585 56.9266L50.9585 51.4266L50.437 50.5733ZM44.319 51.485C45.0471 51.303 46.2365 51.2582 47.4735 51.2873C48.6944 51.3161 49.9048 51.4149 50.6425 51.4969L50.753 50.503C49.9907 50.4183 48.7511 50.3172 47.497 50.2876C46.259 50.2584 44.9484 50.2969 44.0765 50.5149L44.319 51.485Z" fill="#F5F5F5"/>
<path d="M27 114C26.6 99.2 46.6667 87.3333 56.5 83.5L77.5 84.5L76.5 85.5C64.1 97.9 74.3333 119.333 81 128.5C77 129.5 66.4 131.1 56 129.5C45.6 127.9 32.3333 118.5 27 114Z" fill="#F5F5F5"/>
<path d="M120.5 102C107.5 120 90.5 126 88 126C71.2 108 75.6667 90.6667 80 84.5L89.5 83.5C94 91.5 99 98 120.5 102Z" fill="#F5F5F5"/>
<path d="M165.867 54.5371C164.634 54.5371 163.632 54.5106 162.863 54.4575C162.094 54.4045 161.457 54.3382 160.953 54.2586C160.449 54.1923 160.032 54.1326 159.7 54.0796C159.382 54.0265 159.057 54 158.725 54C158.871 53.4032 158.977 52.8594 159.044 52.3687C159.11 51.8648 159.143 51.4006 159.143 50.9762C159.143 50.3794 159.09 49.829 158.984 49.3251C158.878 48.8078 158.752 48.2641 158.606 47.6938L159.501 47.654C159.873 48.4895 160.43 49.2588 161.172 49.9617C161.915 50.6513 162.744 51.2547 163.659 51.7719C164.574 52.2759 165.529 52.6738 166.524 52.9655C167.518 53.2441 168.466 53.3833 169.368 53.3833C170.443 53.3833 171.431 53.1976 172.332 52.8263C173.234 52.455 174.01 51.9642 174.66 51.3542C175.31 50.7309 175.814 50.028 176.172 49.2455C176.543 48.4498 176.729 47.6341 176.729 46.7986C176.729 45.8835 176.517 45.1408 176.092 44.5706C175.681 43.987 175.124 43.5228 174.421 43.178C173.732 42.8332 172.936 42.5746 172.034 42.4022C171.145 42.2298 170.23 42.0905 169.289 41.9844C168.586 41.9049 167.817 41.812 166.981 41.7059C166.159 41.5998 165.33 41.4407 164.494 41.2285C163.659 41.0163 162.857 40.7378 162.087 40.393C161.318 40.0349 160.635 39.584 160.038 39.0402C159.442 38.4965 158.964 37.8334 158.606 37.0509C158.248 36.2684 158.069 35.3334 158.069 34.2459C158.069 32.9595 158.321 31.8388 158.825 30.884C159.329 29.9291 159.992 29.1134 160.814 28.4371C161.65 27.7474 162.605 27.1838 163.679 26.7461C164.753 26.2952 165.854 25.9438 166.981 25.6918C168.122 25.4265 169.249 25.2475 170.363 25.1547C171.49 25.0486 172.518 24.9955 173.446 24.9955C174.255 24.9955 175.011 25.022 175.714 25.0751C176.43 25.1281 177.087 25.1878 177.684 25.2541C178.294 25.3072 178.851 25.3602 179.355 25.4133C179.872 25.4531 180.343 25.473 180.767 25.473C180.621 26.0963 180.515 26.6533 180.449 27.144C180.396 27.6214 180.369 28.0856 180.369 28.5365C180.369 29.1068 180.416 29.6506 180.509 30.1678C180.601 30.6718 180.727 31.2155 180.887 31.799L179.991 31.8388C179.779 31.3481 179.58 30.8641 179.395 30.3866C179.209 29.9092 178.983 29.4649 178.718 29.0538C178.466 28.6294 178.148 28.2448 177.763 27.9C177.392 27.5419 176.908 27.2368 176.311 26.9849C175.728 26.7196 175.005 26.5207 174.143 26.3881C173.294 26.2422 172.259 26.1692 171.039 26.1692C170.217 26.1692 169.415 26.3151 168.632 26.6069C167.863 26.8987 167.173 27.3032 166.563 27.8204C165.967 28.3243 165.482 28.9344 165.111 29.6506C164.74 30.3535 164.554 31.1227 164.554 31.9582C164.554 32.6876 164.687 33.3109 164.952 33.8282C165.231 34.3454 165.589 34.783 166.026 35.1411C166.464 35.4992 166.955 35.791 167.498 36.0164C168.055 36.2419 168.606 36.4209 169.149 36.5535C169.707 36.6729 170.23 36.7591 170.721 36.8122C171.225 36.8652 171.643 36.905 171.974 36.9315C172.598 36.9846 173.307 37.0641 174.103 37.1702C174.899 37.2763 175.708 37.4421 176.53 37.6676C177.352 37.8798 178.155 38.1649 178.937 38.523C179.733 38.8811 180.436 39.3452 181.046 39.9155C181.669 40.4858 182.166 41.1754 182.538 41.9844C182.909 42.7802 183.095 43.7284 183.095 44.8292C183.095 46.2748 182.843 47.5214 182.339 48.5691C181.848 49.6036 181.178 50.4855 180.33 51.2149C179.481 51.9311 178.486 52.508 177.346 52.9457C176.218 53.37 175.011 53.7016 173.725 53.9403C172.452 54.179 171.139 54.3382 169.786 54.4178C168.447 54.4973 167.14 54.5371 165.867 54.5371ZM215.859 53.7613C214.652 54.252 213.565 54.5835 212.597 54.7559C211.628 54.9284 210.773 55.0146 210.03 55.0146C209.102 55.0146 208.174 54.7692 207.245 54.2785C206.33 53.7878 205.442 53.1645 204.58 52.4085C203.731 51.6393 202.928 50.7905 202.172 49.8622C201.416 48.9338 200.733 48.0254 200.123 47.1368C199.527 46.2482 199.016 45.4392 198.592 44.7098C198.18 43.9804 197.889 43.4366 197.716 43.0786C199.401 42.8001 200.906 42.2961 202.232 41.5667C202.802 41.2484 203.359 40.8704 203.903 40.4327C204.447 39.9951 204.931 39.4779 205.355 38.8811C205.78 38.2843 206.118 37.6013 206.37 36.8321C206.635 36.0628 206.768 35.1875 206.768 34.2061C206.768 33.3176 206.655 32.5152 206.43 31.799C206.204 31.0696 205.906 30.4264 205.534 29.8694C205.163 29.2991 204.732 28.815 204.241 28.4172C203.751 28.006 203.24 27.6679 202.71 27.4026C202.179 27.1374 201.642 26.9451 201.098 26.8257C200.568 26.6931 200.07 26.6268 199.606 26.6268C198.903 26.6268 198.32 26.6997 197.856 26.8456C197.405 26.9915 197.047 27.1904 196.781 27.4424C196.516 27.6811 196.33 27.9663 196.224 28.2978C196.131 28.6161 196.085 28.9543 196.085 29.3124V50.4988C196.085 50.764 196.125 51.0558 196.204 51.3741C196.297 51.6924 196.463 51.9908 196.702 52.2693C196.954 52.5478 197.312 52.7865 197.776 52.9854C198.24 53.1711 198.85 53.2639 199.606 53.2639V54H186.278V53.2639C186.981 53.2639 187.557 53.1976 188.008 53.065C188.459 52.9191 188.817 52.7268 189.083 52.4881C189.348 52.2361 189.527 51.951 189.62 51.6327C189.726 51.3144 189.779 50.9762 189.779 50.6181V28.815C189.779 28.5498 189.726 28.2647 189.62 27.9596C189.527 27.6546 189.348 27.3761 189.083 27.1241C188.831 26.8589 188.479 26.64 188.028 26.4676C187.577 26.2952 186.994 26.209 186.278 26.209V25.473H199.606C201.489 25.473 203.267 25.6387 204.938 25.9703C206.609 26.3019 208.067 26.8257 209.314 27.5419C210.574 28.2448 211.569 29.1532 212.298 30.2673C213.041 31.368 213.412 32.6942 213.412 34.2459C213.412 35.5589 213.14 36.7061 212.597 37.6875C212.066 38.6689 211.357 39.511 210.468 40.2139C209.593 40.9168 208.591 41.5004 207.464 41.9645C206.35 42.4155 205.209 42.7735 204.042 43.0388C204.493 43.861 204.991 44.6833 205.534 45.5055C206.078 46.3278 206.648 47.1169 207.245 47.8729C207.842 48.6288 208.439 49.3317 209.036 49.9815C209.646 50.6314 210.236 51.2017 210.806 51.6924C211.376 52.1698 211.907 52.5478 212.398 52.8263C212.902 53.0915 213.346 53.2242 213.73 53.2242C213.916 53.2242 214.168 53.2043 214.486 53.1645C214.818 53.1247 215.176 53.0252 215.561 52.8661L215.859 53.7613ZM230.918 54H217.59V53.2639C218.306 53.2639 218.889 53.191 219.34 53.0451C219.805 52.886 220.163 52.6804 220.415 52.4284C220.68 52.1764 220.859 51.8847 220.952 51.5531C221.045 51.2216 221.091 50.8701 221.091 50.4988V28.815C221.091 28.5498 221.038 28.2647 220.932 27.9596C220.839 27.6546 220.66 27.3761 220.395 27.1241C220.143 26.8589 219.791 26.64 219.34 26.4676C218.889 26.2952 218.306 26.209 217.59 26.209V25.473H230.918V26.209C230.189 26.209 229.592 26.2886 229.128 26.4477C228.677 26.5936 228.319 26.7992 228.054 27.0644C227.802 27.3164 227.629 27.6082 227.536 27.9397C227.444 28.2713 227.397 28.6227 227.397 28.9941V50.4988C227.397 50.764 227.437 51.0558 227.517 51.3741C227.609 51.6924 227.775 51.9908 228.014 52.2693C228.266 52.5478 228.624 52.7865 229.088 52.9854C229.552 53.1711 230.162 53.2639 230.918 53.2639V54ZM264.657 38.9209C264.657 41.0561 264.273 43.0852 263.504 45.0082C262.734 46.918 261.62 48.6023 260.161 50.0611C258.703 51.52 256.919 52.6804 254.81 53.5425C252.701 54.3912 250.308 54.8156 247.629 54.8156C246.952 54.8156 246.283 54.7758 245.619 54.6963C244.956 54.63 244.306 54.504 243.67 54.3183V58.5158C243.67 58.8341 243.557 59.1789 243.332 59.5502C243.12 59.9216 242.834 60.3194 242.476 60.7438C242.131 61.1815 241.734 61.6457 241.283 62.1364C240.832 62.6403 240.368 63.1708 239.89 63.7278C239.426 64.2849 238.975 64.8684 238.537 65.4785C238.1 66.1018 237.709 66.7583 237.364 67.4479V28.815C237.364 28.5498 237.311 28.2647 237.205 27.9596C237.112 27.6546 236.933 27.3761 236.667 27.1241C236.415 26.8589 236.064 26.64 235.613 26.4676C235.162 26.2952 234.579 26.209 233.862 26.209V25.473H243.67C244.492 25.473 245.421 25.4995 246.455 25.5525C247.503 25.6056 248.597 25.7117 249.737 25.8708C250.878 26.0167 252.038 26.2355 253.219 26.5273C254.399 26.8058 255.54 27.1772 256.64 27.6413C257.741 28.0923 258.776 28.6493 259.744 29.3124C260.725 29.9755 261.581 30.7646 262.31 31.6797C263.039 32.5948 263.61 33.6491 264.021 34.8427C264.445 36.0363 264.657 37.3957 264.657 38.9209ZM258.132 40.4327C258.132 38.6423 257.9 37.0774 257.436 35.7379C256.972 34.3984 256.349 33.238 255.566 32.2566C254.797 31.2752 253.908 30.4596 252.9 29.8097C251.906 29.1599 250.871 28.636 249.797 28.2381C248.736 27.827 247.668 27.5286 246.594 27.3429C245.533 27.144 244.558 27.0114 243.67 26.9451V52.4483C244.413 52.8594 245.222 53.1313 246.097 53.2639C246.972 53.3966 247.808 53.4629 248.603 53.4629C249.85 53.4629 250.951 53.2639 251.906 52.8661C252.874 52.4682 253.709 51.9377 254.412 51.2746C255.115 50.5982 255.705 49.8224 256.183 48.9471C256.66 48.0585 257.038 47.1302 257.317 46.162C257.609 45.1939 257.814 44.2191 257.933 43.2377C258.066 42.2563 258.132 41.3213 258.132 40.4327ZM288.191 25.473H301.52V26.209C300.804 26.209 300.213 26.2886 299.749 26.4477C299.298 26.5936 298.94 26.7992 298.675 27.0644C298.423 27.3164 298.251 27.6082 298.158 27.9397C298.065 28.2713 298.018 28.6227 298.018 28.9941V50.4988C298.018 50.764 298.058 51.0558 298.138 51.3741C298.231 51.6924 298.396 51.9908 298.635 52.2693C298.887 52.5478 299.239 52.7865 299.69 52.9854C300.154 53.1711 300.764 53.2639 301.52 53.2639V54H291.712V51.016C291.235 51.5332 290.711 52.0239 290.141 52.4881C289.57 52.939 288.934 53.3369 288.231 53.6817C287.541 54.0265 286.785 54.2984 285.963 54.4973C285.141 54.7095 284.246 54.8156 283.278 54.8156C282.084 54.8156 280.89 54.6896 279.697 54.4377C278.503 54.1857 277.356 53.8077 276.255 53.3037C275.168 52.7998 274.153 52.1764 273.211 51.4338C272.27 50.6778 271.448 49.8091 270.745 48.8277C270.055 47.8331 269.511 46.719 269.113 45.4857C268.716 44.239 268.517 42.8796 268.517 41.4075C268.517 39.8161 268.696 38.3506 269.054 37.0111C269.425 35.6584 269.909 34.4316 270.506 33.3308C271.116 32.2168 271.806 31.2221 272.575 30.3468C273.344 29.4583 274.133 28.6758 274.942 27.9994C276.839 26.408 278.987 25.1348 281.388 24.1799L281.925 24.6573C281.872 24.6971 281.679 24.8695 281.348 25.1746C281.016 25.4796 280.612 25.9305 280.134 26.5273C279.657 27.1241 279.146 27.8801 278.603 28.7952C278.059 29.697 277.555 30.7779 277.091 32.0378C276.627 33.2977 276.242 34.7433 275.937 36.3745C275.632 38.0058 275.479 39.8359 275.479 41.8651C275.479 43.7881 275.685 45.4724 276.096 46.918C276.52 48.3503 277.104 49.5505 277.847 50.5187C278.589 51.4735 279.465 52.1897 280.473 52.6671C281.494 53.1446 282.601 53.3833 283.795 53.3833C284.869 53.3833 285.884 53.1777 286.838 52.7666C287.793 52.3555 288.629 51.7786 289.345 51.0359C290.074 50.2932 290.651 49.4113 291.076 48.3901C291.5 47.3556 291.712 46.2217 291.712 44.9883V28.9941C291.712 28.7288 291.666 28.4371 291.573 28.1188C291.493 27.7872 291.328 27.4822 291.076 27.2037C290.837 26.9252 290.486 26.6931 290.021 26.5074C289.557 26.3085 288.947 26.209 288.191 26.209V25.473ZM304.484 25.473H317.792V26.209C317.09 26.209 316.513 26.282 316.062 26.4278C315.611 26.5737 315.253 26.7727 314.987 27.0246C314.722 27.2766 314.537 27.5618 314.43 27.8801C314.338 28.1984 314.291 28.5365 314.291 28.8946V42.6011C314.291 44.9883 314.119 47.1501 313.774 49.0863C313.429 51.0094 312.978 52.7335 312.421 54.2586C311.864 55.797 311.228 57.1498 310.511 58.3169C309.795 59.4972 309.066 60.5117 308.323 61.3605C306.573 63.3631 304.583 64.8485 302.355 65.8166L301.997 65.1602C303.111 64.0992 304.106 62.7265 304.981 61.0422C305.352 60.3261 305.717 59.5105 306.075 58.5954C306.433 57.6803 306.752 56.6524 307.03 55.5119C307.322 54.3846 307.554 53.1446 307.726 51.7918C307.899 50.4258 307.985 48.9471 307.985 47.3556V28.815C307.985 28.5498 307.932 28.2647 307.826 27.9596C307.733 27.6546 307.554 27.3761 307.289 27.1241C307.037 26.8589 306.685 26.64 306.234 26.4676C305.784 26.2952 305.2 26.209 304.484 26.209V25.473ZM353.203 52.9457C351.996 53.4364 350.895 53.7679 349.9 53.9403C348.906 54.1127 348.01 54.1989 347.215 54.1989C346.578 54.1989 346.028 54.1591 345.564 54.0796C345.099 54.0133 344.702 53.9271 344.37 53.821C343.985 53.7016 343.654 53.569 343.375 53.4231C342.792 53.0915 342.281 52.6605 341.843 52.13C341.406 51.5995 341.008 51.0293 340.65 50.4192C340.305 49.8091 339.993 49.1792 339.715 48.5293C339.436 47.8795 339.165 47.2694 338.899 46.6991L338.402 45.6448C337.062 46.0294 335.809 46.4737 334.642 46.9777C333.488 47.4684 332.46 47.9591 331.559 48.4498C330.657 48.9272 329.894 49.3715 329.271 49.7826C328.661 50.1805 328.23 50.4722 327.978 50.6579C327.487 51.2017 326.937 51.6857 326.327 52.1101C325.717 52.5345 325.034 52.8992 324.278 53.2043C323.522 53.496 322.68 53.7215 321.751 53.8806C320.823 54.0398 319.802 54.1194 318.688 54.1194L318.489 53.2639C319.775 53.0518 320.883 52.6406 321.811 52.0306C322.753 51.4205 323.562 50.6712 324.238 49.7826C324.914 48.8808 325.491 47.8729 325.969 46.7588C326.446 45.6315 326.87 44.4446 327.242 43.1979C327.454 42.4818 327.732 41.7258 328.077 40.9301C328.435 40.1343 328.86 39.3651 329.35 38.6225C329.854 37.8665 330.425 37.1636 331.061 36.5138C331.711 35.8507 332.447 35.2936 333.269 34.8427C333.044 34.4183 332.819 33.9873 332.593 33.5497C332.381 33.0987 332.175 32.6478 331.976 32.1969C331.698 31.6664 331.419 31.0829 331.141 30.4463C330.862 29.7964 330.531 29.1996 330.146 28.6559C329.775 28.0989 329.331 27.6347 328.813 27.2634C328.309 26.892 327.679 26.7064 326.923 26.7064C326.393 26.7064 325.869 26.766 325.352 26.8854C324.848 27.0048 324.364 27.1506 323.9 27.323L323.621 26.5074C324.775 26.1228 325.942 25.7979 327.122 25.5326C328.316 25.2541 329.496 25.1149 330.663 25.1149C331.22 25.1149 331.771 25.1547 332.315 25.2342C332.858 25.3006 333.382 25.4265 333.886 25.6122C334.324 25.7714 334.748 26.0366 335.159 26.408C335.57 26.766 335.962 27.1971 336.333 27.701C336.704 28.1917 337.049 28.7222 337.367 29.2925C337.699 29.8628 338.004 30.433 338.283 31.0033C338.574 31.5736 338.833 32.1173 339.058 32.6346C339.297 33.1385 339.503 33.5762 339.675 33.9475C340.842 36.4541 342.003 38.9673 343.156 41.4871C344.31 43.9937 345.55 46.4671 346.877 48.9073C347.115 49.345 347.367 49.776 347.632 50.2004C347.911 50.6248 348.216 51.0027 348.548 51.3343C348.892 51.6658 349.27 51.9311 349.681 52.13C350.093 52.329 350.557 52.4218 351.074 52.4085C351.26 52.4085 351.512 52.3886 351.83 52.3489C352.162 52.3091 352.52 52.2096 352.904 52.0505L353.203 52.9457ZM334.383 37.1305C334.039 37.6875 333.72 38.2644 333.429 38.8612C333.15 39.458 332.891 40.068 332.653 40.6914C332.414 41.3014 332.195 41.9115 331.996 42.5215C331.797 43.1316 331.598 43.7151 331.399 44.2722C331.201 44.8822 330.982 45.479 330.743 46.0626C330.518 46.6328 330.259 47.1899 329.967 47.7336C330.962 47.1501 332.129 46.54 333.468 45.9034C334.808 45.2668 336.24 44.7231 337.765 44.2722L334.383 37.1305ZM183.294 85.8388C182.909 85.0033 182.405 84.2606 181.782 83.6108C181.172 82.9609 180.482 82.4105 179.713 81.9596C178.957 81.5087 178.155 81.1705 177.306 80.9451C176.457 80.7064 175.615 80.587 174.779 80.587C173.864 80.587 173.002 80.7528 172.193 81.0843C171.384 81.4026 170.628 81.8469 169.925 82.4172C169.236 82.9742 168.606 83.6439 168.035 84.4264C167.465 85.1956 166.961 86.0311 166.524 86.933C166.099 87.8215 165.748 88.7565 165.469 89.7379C165.191 90.7193 164.992 91.7007 164.872 92.6821H181.822C181.543 93.2391 181.331 93.8293 181.185 94.4526C181.039 95.0627 180.933 95.633 180.867 96.1635C180.787 96.7868 180.741 97.3902 180.727 97.9738L180.071 98.0931C179.899 97.2443 179.686 96.5414 179.434 95.9844C179.182 95.4274 178.804 94.9898 178.3 94.6715C177.796 94.3532 177.12 94.1343 176.271 94.015C175.436 93.8824 174.342 93.8161 172.989 93.8161H164.753V94.6715C164.753 95.7457 164.879 96.8001 165.131 97.8345C165.383 98.869 165.741 99.857 166.205 100.799C166.669 101.727 167.24 102.582 167.916 103.365C168.592 104.147 169.348 104.83 170.184 105.414C171.019 105.984 171.935 106.428 172.929 106.747C173.924 107.065 174.978 107.224 176.092 107.224C177.1 107.224 177.989 107.131 178.758 106.946C179.527 106.747 180.19 106.501 180.747 106.21C181.318 105.918 181.795 105.6 182.18 105.255C182.564 104.897 182.883 104.558 183.135 104.24C183.386 103.922 183.572 103.643 183.692 103.405C183.824 103.153 183.924 102.987 183.99 102.907L183.672 105.712C183.367 106.137 182.922 106.548 182.339 106.946C181.755 107.33 181.059 107.682 180.25 108C179.454 108.305 178.559 108.55 177.564 108.736C176.57 108.922 175.495 109.015 174.342 109.015C172.127 109.015 170.031 108.69 168.055 108.04C166.093 107.39 164.362 106.468 162.863 105.275C161.378 104.081 160.191 102.642 159.302 100.958C158.427 99.2602 157.976 97.3703 157.95 95.2882C157.989 93.1397 158.361 91.21 159.064 89.4992C159.78 87.7751 160.728 86.2765 161.908 85.0033C163.102 83.7169 164.488 82.6559 166.066 81.8204C167.644 80.9716 169.329 80.3416 171.119 79.9305C172.061 79.7051 173.141 79.5592 174.362 79.4929C175.582 79.4265 176.808 79.3934 178.042 79.3934C179.235 79.3934 180.356 79.4067 181.404 79.4332C182.465 79.4597 183.353 79.473 184.069 79.473C183.924 80.0963 183.818 80.6533 183.751 81.144C183.698 81.6214 183.672 82.0724 183.672 82.4968C183.672 83.0936 183.718 83.6506 183.811 84.1678C183.904 84.6718 184.03 85.2155 184.189 85.799L183.294 85.8388ZM187.392 71.3764H197.199V106.448H211.662C211.158 106.939 210.733 107.509 210.388 108.159C210.044 108.809 209.765 109.432 209.553 110.029C209.314 110.732 209.122 111.442 208.976 112.158L208.041 112.357C208.107 112.118 208.147 111.879 208.16 111.64C208.187 111.402 208.2 111.183 208.2 110.984C208.2 110.109 207.922 109.459 207.365 109.034C206.821 108.61 206.038 108.318 205.017 108.159C203.996 108.013 202.749 107.954 201.277 107.98C199.805 107.993 198.147 108 196.304 108H187.392V107.264C188.095 107.264 188.671 107.198 189.122 107.065C189.573 106.919 189.931 106.727 190.197 106.488C190.462 106.236 190.641 105.951 190.734 105.633C190.84 105.314 190.893 104.976 190.893 104.618V74.7185C190.893 74.4532 190.84 74.1681 190.734 73.863C190.641 73.558 190.462 73.2795 190.197 73.0275C189.945 72.7623 189.593 72.5435 189.142 72.371C188.691 72.1986 188.108 72.1124 187.392 72.1124V71.3764ZM237.085 85.8388C236.701 85.0033 236.197 84.2606 235.573 83.6108C234.963 82.9609 234.274 82.4105 233.504 81.9596C232.748 81.5087 231.946 81.1705 231.097 80.9451C230.249 80.7064 229.406 80.587 228.571 80.587C227.656 80.587 226.794 80.7528 225.985 81.0843C225.176 81.4026 224.42 81.8469 223.717 82.4172C223.027 82.9742 222.397 83.6439 221.827 84.4264C221.257 85.1956 220.753 86.0311 220.315 86.933C219.891 87.8215 219.539 88.7565 219.261 89.7379C218.982 90.7193 218.783 91.7007 218.664 92.6821H235.613C235.335 93.2391 235.122 93.8293 234.977 94.4526C234.831 95.0627 234.725 95.633 234.658 96.1635C234.579 96.7868 234.532 97.3902 234.519 97.9738L233.862 98.0931C233.69 97.2443 233.478 96.5414 233.226 95.9844C232.974 95.4274 232.596 94.9898 232.092 94.6715C231.588 94.3532 230.912 94.1343 230.063 94.015C229.227 93.8824 228.133 93.8161 226.78 93.8161H218.545V94.6715C218.545 95.7457 218.671 96.8001 218.923 97.8345C219.175 98.869 219.533 99.857 219.997 100.799C220.461 101.727 221.031 102.582 221.708 103.365C222.384 104.147 223.14 104.83 223.976 105.414C224.811 105.984 225.726 106.428 226.721 106.747C227.715 107.065 228.77 107.224 229.884 107.224C230.892 107.224 231.78 107.131 232.55 106.946C233.319 106.747 233.982 106.501 234.539 106.21C235.109 105.918 235.587 105.6 235.971 105.255C236.356 104.897 236.674 104.558 236.926 104.24C237.178 103.922 237.364 103.643 237.483 103.405C237.616 103.153 237.715 102.987 237.781 102.907L237.463 105.712C237.158 106.137 236.714 106.548 236.13 106.946C235.547 107.33 234.851 107.682 234.042 108C233.246 108.305 232.351 108.55 231.356 108.736C230.361 108.922 229.287 109.015 228.133 109.015C225.918 109.015 223.823 108.69 221.847 108.04C219.884 107.39 218.153 106.468 216.655 105.275C215.169 104.081 213.982 102.642 213.094 100.958C212.219 99.2602 211.768 97.3703 211.741 95.2882C211.781 93.1397 212.152 91.21 212.855 89.4992C213.571 87.7751 214.52 86.2765 215.7 85.0033C216.893 83.7169 218.279 82.6559 219.858 81.8204C221.436 80.9716 223.12 80.3416 224.91 79.9305C225.852 79.7051 226.933 79.5592 228.153 79.4929C229.373 79.4265 230.6 79.3934 231.833 79.3934C233.027 79.3934 234.148 79.4067 235.195 79.4332C236.256 79.4597 237.145 79.473 237.861 79.473C237.715 80.0963 237.609 80.6533 237.543 81.144C237.49 81.6214 237.463 82.0724 237.463 82.4968C237.463 83.0936 237.51 83.6506 237.602 84.1678C237.695 84.6718 237.821 85.2155 237.98 85.799L237.085 85.8388ZM254.492 108H241.183V107.264C241.886 107.264 242.463 107.198 242.914 107.065C243.365 106.919 243.723 106.727 243.988 106.488C244.253 106.236 244.432 105.951 244.525 105.633C244.631 105.314 244.684 104.976 244.684 104.618V74.7185C244.684 74.4532 244.631 74.1681 244.525 73.863C244.432 73.558 244.253 73.2795 243.988 73.0275C243.736 72.7623 243.385 72.5435 242.934 72.371C242.483 72.1986 241.899 72.1124 241.183 72.1124V71.3764H250.991V104.499C250.991 104.764 251.03 105.056 251.11 105.374C251.203 105.692 251.369 105.991 251.607 106.269C251.859 106.548 252.211 106.787 252.662 106.985C253.126 107.171 253.736 107.264 254.492 107.264V108ZM273.649 107.761C272.442 108.252 271.315 108.584 270.267 108.756C269.233 108.928 268.298 109.015 267.462 109.015C266.282 109.015 265.155 108.789 264.08 108.338C263.006 107.887 261.985 107.29 261.017 106.548C260.062 105.805 259.154 104.956 258.291 104.001C257.443 103.047 256.634 102.072 255.865 101.077C255.109 100.069 254.392 99.0745 253.716 98.0931C253.053 97.1117 252.43 96.2298 251.846 95.4473C253.358 94.267 254.784 93.0004 256.123 91.6477C256.693 91.0774 257.27 90.4607 257.854 89.7976C258.451 89.1212 259.014 88.4183 259.545 87.6889C260.089 86.9462 260.586 86.1836 261.037 85.4012C261.488 84.6054 261.859 83.8031 262.151 82.9941C262.177 82.9278 262.197 82.8615 262.21 82.7952C262.224 82.7288 262.23 82.6559 262.23 82.5763C262.23 82.3376 262.164 82.079 262.031 81.8005C261.912 81.522 261.707 81.2634 261.415 81.0246C261.136 80.7859 260.765 80.5936 260.301 80.4477C259.85 80.2886 259.299 80.209 258.65 80.209V79.473H269.571C269.133 81.2236 268.517 82.8349 267.721 84.307C266.938 85.7659 266.037 87.0921 265.015 88.2857C264.008 89.4793 262.913 90.5337 261.733 91.4487C260.566 92.3638 259.379 93.1529 258.172 93.8161C259.724 95.5799 261.156 97.2709 262.469 98.8889C263.795 100.507 265.009 101.933 266.11 103.166C267.224 104.399 268.225 105.387 269.113 106.13C270.015 106.859 270.818 107.224 271.521 107.224C271.706 107.224 271.965 107.204 272.296 107.164C272.628 107.125 272.986 107.025 273.371 106.866L273.649 107.761ZM294.617 108H281.288V107.264C282.018 107.264 282.608 107.191 283.059 107.045C283.51 106.886 283.861 106.68 284.113 106.428C284.378 106.176 284.557 105.885 284.65 105.553C284.743 105.222 284.789 104.87 284.789 104.499V81.0246H282.263C281.56 81.0246 280.817 81.0843 280.035 81.2037C279.266 81.3098 278.496 81.5286 277.727 81.8602C276.958 82.1785 276.215 82.6227 275.499 83.193C274.783 83.7633 274.133 84.506 273.55 85.4211L272.734 85.3017C273.092 84.7447 273.364 84.1346 273.55 83.4715C273.749 82.7952 273.901 82.1586 274.007 81.5618C274.113 80.8721 274.18 80.1759 274.206 79.473H301.937C301.752 79.8443 301.606 80.2289 301.5 80.6268C301.394 81.0246 301.308 81.4225 301.241 81.8204C301.175 82.205 301.128 82.5763 301.102 82.9344C301.089 83.2792 301.082 83.5843 301.082 83.8495C301.082 83.9954 301.082 84.128 301.082 84.2474C301.082 84.3535 301.089 84.4463 301.102 84.5259C301.115 84.6187 301.128 84.7049 301.142 84.7845L300.406 84.9038C300.353 84.307 300.18 83.7964 299.888 83.3721C299.61 82.9477 299.259 82.5962 298.834 82.3177C298.423 82.0259 297.965 81.7939 297.461 81.6214C296.958 81.449 296.46 81.323 295.969 81.2435C295.492 81.1506 295.041 81.091 294.617 81.0644C294.192 81.0379 293.854 81.0246 293.602 81.0246H291.115V104.499C291.115 104.764 291.155 105.056 291.235 105.374C291.314 105.692 291.48 105.991 291.732 106.269C291.984 106.548 292.336 106.787 292.787 106.985C293.251 107.171 293.861 107.264 294.617 107.264V108ZM333.031 107.761C331.824 108.252 330.736 108.584 329.768 108.756C328.8 108.928 327.945 109.015 327.202 109.015C326.274 109.015 325.345 108.769 324.417 108.279C323.502 107.788 322.613 107.164 321.751 106.409C320.902 105.639 320.1 104.791 319.344 103.862C318.588 102.934 317.905 102.025 317.295 101.137C316.698 100.248 316.188 99.4392 315.763 98.7098C315.352 97.9804 315.06 97.4366 314.888 97.0786C316.572 96.8001 318.078 96.2961 319.404 95.5667C319.974 95.2484 320.531 94.8704 321.075 94.4327C321.619 93.9951 322.103 93.4779 322.527 92.8811C322.951 92.2843 323.29 91.6013 323.542 90.8321C323.807 90.0628 323.939 89.1875 323.939 88.2061C323.939 87.3176 323.827 86.5152 323.601 85.799C323.376 85.0696 323.077 84.4264 322.706 83.8694C322.335 83.2991 321.904 82.815 321.413 82.4172C320.922 82.006 320.412 81.6679 319.881 81.4026C319.351 81.1374 318.814 80.9451 318.27 80.8257C317.739 80.6931 317.242 80.6268 316.778 80.6268C316.075 80.6268 315.491 80.6997 315.027 80.8456C314.576 80.9915 314.218 81.1904 313.953 81.4424C313.688 81.6811 313.502 81.9663 313.396 82.2978C313.303 82.6161 313.257 82.9543 313.257 83.3124V104.499C313.257 104.764 313.297 105.056 313.376 105.374C313.469 105.692 313.635 105.991 313.873 106.269C314.125 106.548 314.484 106.787 314.948 106.985C315.412 107.171 316.022 107.264 316.778 107.264V108H303.449V107.264C304.152 107.264 304.729 107.198 305.18 107.065C305.631 106.919 305.989 106.727 306.254 106.488C306.52 106.236 306.699 105.951 306.791 105.633C306.898 105.314 306.951 104.976 306.951 104.618V82.815C306.951 82.5498 306.898 82.2647 306.791 81.9596C306.699 81.6546 306.52 81.3761 306.254 81.1241C306.002 80.8589 305.651 80.64 305.2 80.4676C304.749 80.2952 304.166 80.209 303.449 80.209V79.473H316.778C318.661 79.473 320.438 79.6387 322.109 79.9703C323.78 80.3019 325.239 80.8257 326.486 81.5419C327.746 82.2448 328.74 83.1532 329.47 84.2673C330.213 85.368 330.584 86.6942 330.584 88.2459C330.584 89.5589 330.312 90.7061 329.768 91.6875C329.238 92.6689 328.528 93.511 327.64 94.2139C326.764 94.9168 325.763 95.5004 324.636 95.9645C323.522 96.4155 322.381 96.7735 321.214 97.0388C321.665 97.861 322.162 98.6833 322.706 99.5055C323.25 100.328 323.82 101.117 324.417 101.873C325.014 102.629 325.611 103.332 326.207 103.982C326.817 104.631 327.408 105.202 327.978 105.692C328.548 106.17 329.079 106.548 329.569 106.826C330.073 107.092 330.518 107.224 330.902 107.224C331.088 107.224 331.34 107.204 331.658 107.164C331.99 107.125 332.348 107.025 332.732 106.866L333.031 107.761ZM334.96 93.7365C334.96 92.6357 335.113 91.5084 335.418 90.3546C335.723 89.1875 336.174 88.0669 336.771 86.9926C337.367 85.9051 338.104 84.884 338.979 83.9291C339.867 82.9609 340.882 82.1188 342.023 81.4026C343.176 80.6865 344.463 80.1228 345.882 79.7117C347.301 79.2873 348.839 79.0751 350.497 79.0751C352.208 79.0751 353.779 79.2674 355.212 79.652C356.657 80.0366 357.957 80.5671 359.111 81.2435C360.278 81.9198 361.299 82.7222 362.174 83.6506C363.063 84.5789 363.799 85.5868 364.383 86.6744C364.979 87.7486 365.424 88.8891 365.715 90.096C366.021 91.3029 366.173 92.5164 366.173 93.7365C366.173 94.9036 366.021 96.0839 365.715 97.2775C365.424 98.4711 364.979 99.6249 364.383 100.739C363.799 101.853 363.063 102.901 362.174 103.882C361.299 104.863 360.278 105.719 359.111 106.448C357.957 107.178 356.657 107.755 355.212 108.179C353.779 108.603 352.208 108.816 350.497 108.816C348.813 108.816 347.261 108.603 345.842 108.179C344.423 107.768 343.137 107.198 341.983 106.468C340.842 105.739 339.834 104.883 338.959 103.902C338.084 102.921 337.348 101.873 336.751 100.759C336.154 99.6448 335.703 98.491 335.398 97.2974C335.106 96.0905 334.96 94.9036 334.96 93.7365ZM341.804 93.6569C341.804 94.7842 341.863 95.8982 341.983 96.999C342.115 98.0998 342.321 99.1541 342.599 100.162C342.878 101.157 343.236 102.085 343.674 102.947C344.125 103.796 344.668 104.539 345.305 105.175C345.942 105.812 346.678 106.316 347.513 106.687C348.349 107.058 349.297 107.251 350.358 107.264C351.419 107.264 352.38 107.078 353.242 106.707C354.104 106.322 354.867 105.805 355.53 105.155C356.193 104.505 356.763 103.743 357.241 102.868C357.718 101.992 358.116 101.064 358.435 100.082C358.753 99.0878 358.985 98.06 359.131 96.999C359.29 95.9247 359.383 94.877 359.409 93.8558C359.409 92.8081 359.343 91.7538 359.21 90.6928C359.091 89.6318 358.885 88.6173 358.594 87.6491C358.315 86.6677 357.95 85.7526 357.5 84.9038C357.049 84.0551 356.498 83.319 355.848 82.6957C355.199 82.0591 354.449 81.5618 353.6 81.2037C352.752 80.8456 351.784 80.6666 350.696 80.6666C349.635 80.6666 348.68 80.8257 347.831 81.144C346.996 81.4623 346.247 81.9132 345.583 82.4968C344.934 83.0803 344.37 83.7699 343.892 84.5657C343.428 85.3614 343.044 86.2433 342.739 87.2115C342.434 88.1796 342.202 89.2074 342.042 90.2949C341.897 91.3824 341.817 92.5031 341.804 93.6569ZM369.535 79.473H379.521L394.581 97.7748V82.815C394.581 82.5498 394.528 82.2647 394.422 81.9596C394.329 81.6546 394.15 81.3761 393.884 81.1241C393.632 80.8589 393.281 80.64 392.83 80.4676C392.379 80.2952 391.796 80.209 391.079 80.209V79.473H399.892V80.209C399.163 80.209 398.573 80.2886 398.122 80.4477C397.671 80.5936 397.313 80.7992 397.047 81.0644C396.795 81.3164 396.623 81.6082 396.53 81.9397C396.437 82.2713 396.391 82.6227 396.391 82.9941V108H394.581L374.827 84.1678V104.499C374.827 104.764 374.866 105.056 374.946 105.374C375.039 105.692 375.205 105.991 375.443 106.269C375.695 106.548 376.047 106.787 376.498 106.985C376.962 107.171 377.572 107.264 378.328 107.264V108H369.535V107.264C370.251 107.264 370.835 107.191 371.286 107.045C371.75 106.886 372.108 106.68 372.36 106.428C372.625 106.176 372.804 105.885 372.897 105.553C372.99 105.222 373.036 104.87 373.036 104.499V81.9994C372.718 81.6413 372.426 81.3496 372.161 81.1241C371.896 80.8987 371.624 80.7196 371.345 80.587C371.08 80.4411 370.802 80.3416 370.51 80.2886C370.218 80.2355 369.893 80.209 369.535 80.209V79.473ZM416.125 108H402.797V107.264C403.513 107.264 404.096 107.191 404.547 107.045C405.011 106.886 405.37 106.68 405.622 106.428C405.887 106.176 406.066 105.885 406.159 105.553C406.251 105.222 406.298 104.87 406.298 104.499V82.815C406.298 82.5498 406.245 82.2647 406.139 81.9596C406.046 81.6546 405.867 81.3761 405.602 81.1241C405.35 80.8589 404.998 80.64 404.547 80.4676C404.096 80.2952 403.513 80.209 402.797 80.209V79.473H416.125V80.209C415.396 80.209 414.799 80.2886 414.335 80.4477C413.884 80.5936 413.526 80.7992 413.261 81.0644C413.009 81.3164 412.836 81.6082 412.743 81.9397C412.65 82.2713 412.604 82.6227 412.604 82.9941V104.499C412.604 104.764 412.644 105.056 412.723 105.374C412.816 105.692 412.982 105.991 413.221 106.269C413.473 106.548 413.831 106.787 414.295 106.985C414.759 107.171 415.369 107.264 416.125 107.264V108ZM432.378 108H419.069V107.264C419.772 107.264 420.349 107.198 420.8 107.065C421.251 106.919 421.609 106.727 421.874 106.488C422.14 106.236 422.319 105.951 422.411 105.633C422.518 105.314 422.571 104.976 422.571 104.618V74.7185C422.571 74.4532 422.518 74.1681 422.411 73.863C422.319 73.558 422.14 73.2795 421.874 73.0275C421.622 72.7623 421.271 72.5435 420.82 72.371C420.369 72.1986 419.786 72.1124 419.069 72.1124V71.3764H428.877V104.499C428.877 104.764 428.917 105.056 428.996 105.374C429.089 105.692 429.255 105.991 429.493 106.269C429.745 106.548 430.097 106.787 430.548 106.985C431.012 107.171 431.622 107.264 432.378 107.264V108ZM451.535 107.761C450.328 108.252 449.201 108.584 448.153 108.756C447.119 108.928 446.184 109.015 445.348 109.015C444.168 109.015 443.041 108.789 441.967 108.338C440.892 107.887 439.871 107.29 438.903 106.548C437.948 105.805 437.04 104.956 436.178 104.001C435.329 103.047 434.52 102.072 433.751 101.077C432.995 100.069 432.279 99.0745 431.602 98.0931C430.939 97.1117 430.316 96.2298 429.732 95.4473C431.244 94.267 432.67 93.0004 434.009 91.6477C434.58 91.0774 435.156 90.4607 435.74 89.7976C436.337 89.1212 436.9 88.4183 437.431 87.6889C437.975 86.9462 438.472 86.1836 438.923 85.4012C439.374 84.6054 439.745 83.8031 440.037 82.9941C440.063 82.9278 440.083 82.8615 440.097 82.7952C440.11 82.7288 440.117 82.6559 440.117 82.5763C440.117 82.3376 440.05 82.079 439.918 81.8005C439.798 81.522 439.593 81.2634 439.301 81.0246C439.022 80.7859 438.651 80.5936 438.187 80.4477C437.736 80.2886 437.186 80.209 436.536 80.209V79.473H447.457C447.02 81.2236 446.403 82.8349 445.607 84.307C444.825 85.7659 443.923 87.0921 442.902 88.2857C441.894 89.4793 440.8 90.5337 439.619 91.4487C438.452 92.3638 437.265 93.1529 436.058 93.8161C437.61 95.5799 439.042 97.2709 440.355 98.8889C441.681 100.507 442.895 101.933 443.996 103.166C445.11 104.399 446.111 105.387 447 106.13C447.901 106.859 448.704 107.224 449.407 107.224C449.592 107.224 449.851 107.204 450.183 107.164C450.514 107.125 450.872 107.025 451.257 106.866L451.535 107.761Z" fill="#1C1C1C"/>
</svg>
